<svg xmlns="http://www.w3.org/2000/svg" viewBox="0 0 1573.16 537.25"><defs><style>.cls-1{fill:#ffffff;}</style></defs><g id="Layer_2" data-name="Layer 2"><g id="Layer_1-2" data-name="Layer 1"><path class="cls-1" d="M0,0H58V365.43H0Z"/><path class="cls-1" d="M152,100.75V365.43H99.72V0h72.82l59.62,218.74V0h51.71V365.43H224.24Z"/><path class="cls-1" d="M377.26,100.75V365.43H325V0h72.82l59.62,218.74V0h51.71V365.43H449.55Z"/><path class="cls-1" d="M999.93,0h58V313.23h95.5v52.2H999.93Z"/><path class="cls-1" d="M1366.64,365.43h-58.57l-10-66.3h-71.23l-10,66.3H1163.5L1222.6,0h84.94ZM1234.2,249.54h55.93l-28-184.81Z"/><path class="cls-1" d="M1567.15,84.05v13c0,37.59-11.61,61.6-37.47,73.61,31.14,12,43.27,39.68,43.27,78.3v29.76c0,56.39-30.07,86.66-88.11,86.66h-91.29V0h87.59C1541.29,0,1567.15,27.67,1567.15,84.05ZM1451.6,52.21v96.57h22.68c21.64,0,34.83-9.39,34.83-38.63V89.79c0-26.1-9-37.58-29.55-37.58Zm0,148.78V313.23h33.24c19.52,0,30.07-8.88,30.07-36V245.36c0-33.93-11.08-44.37-37.46-44.37Z"/><polygon class="cls-1" points="889.48 0.04 837.9 0.04 717.1 365.42 768.68 365.42 889.48 0.04"/><polygon class="cls-1" points="803.29 0 751.71 0 630.92 365.38 682.5 365.38 803.29 0"/><polygon class="cls-1" points="889.49 258.16 854.02 365.43 803.29 365.43 838.76 258.16 889.49 258.16"/><path class="cls-1" d="M4.5,421.76a6.62,6.62,0,0,1-2-4.86,6.48,6.48,0,0,1,2-4.73,6.8,6.8,0,0,1,5-2,6.94,6.94,0,0,1,5,2,6.27,6.27,0,0,1,2,4.66,6.92,6.92,0,0,1-7,7A6.8,6.8,0,0,1,4.5,421.76Zm.14,17.56h9.59v71.05H4.64Z"/><path class="cls-1" d="M105.2,446.55q7.9,7.77,7.9,22.62v41.2h-9.59V470.12q0-11.07-5.53-16.89t-15.81-5.81q-11.48,0-18.17,6.83t-6.68,18.84v37.28H47.73V439.32h9.18v13.1a26.64,26.64,0,0,1,10.88-10.06,34.71,34.71,0,0,1,16.14-3.58Q97.3,438.78,105.2,446.55Z"/><path class="cls-1" d="M203.4,446.55q7.9,7.77,7.91,22.62v41.2h-9.59V470.12q0-11.07-5.54-16.89t-15.81-5.81q-11.48,0-18.16,6.83t-6.69,18.84v37.28h-9.59V439.32h9.18v13.1A26.64,26.64,0,0,1,166,442.36a34.71,34.71,0,0,1,16.14-3.58Q195.5,438.78,203.4,446.55Z"/><path class="cls-1" d="M254.93,506.39a34,34,0,0,1-13-12.9,39.09,39.09,0,0,1,0-37.28,33.45,33.45,0,0,1,13-12.84,39.62,39.62,0,0,1,37,0,33,33,0,0,1,12.9,12.84,39.61,39.61,0,0,1,0,37.28,33.59,33.59,0,0,1-12.9,12.9,39.09,39.09,0,0,1-37,0Zm32.09-7.3a24,24,0,0,0,9.38-9.79,32.6,32.6,0,0,0,0-28.91A24.06,24.06,0,0,0,287,450.6a28.43,28.43,0,0,0-27.15,0,24.51,24.51,0,0,0-9.46,9.79,32.09,32.09,0,0,0,0,28.91,24.45,24.45,0,0,0,9.46,9.79,28.43,28.43,0,0,0,27.15,0Z"/><path class="cls-1" d="M393.53,439.32l-31.61,71.05h-9.86l-31.48-71.05h10l26.61,60.52,26.88-60.52Z"/><path class="cls-1" d="M457.82,445.74q7.44,6.94,7.43,20.6v44h-9.18V499.3a22,22,0,0,1-9.52,8.64,33.38,33.38,0,0,1-14.93,3.11q-11.89,0-18.91-5.68a19.51,19.51,0,0,1-.48-29.58q6.56-5.54,20.87-5.54h22.56v-4.32q0-9.18-5.13-14t-15-4.8a38.23,38.23,0,0,0-13,2.23,32.79,32.79,0,0,0-10.67,6.15l-4.33-7.16a38.54,38.54,0,0,1,13-7.09,50.38,50.38,0,0,1,15.94-2.5Q450.4,438.78,457.82,445.74Zm-10.8,54A22.21,22.21,0,0,0,455.66,489V477.41H433.37q-18.22,0-18.23,12.7a11.59,11.59,0,0,0,4.73,9.79q4.72,3.59,13.23,3.58A25.27,25.27,0,0,0,447,499.77Z"/><path class="cls-1" d="M535.49,506.05a18.1,18.1,0,0,1-6.68,3.71,26.84,26.84,0,0,1-8.31,1.29q-10,0-15.4-5.41t-5.4-15.26v-43H487v-8.1h12.7V423.79h9.59v15.53H530.9v8.1H509.29v42.42q0,6.35,3.17,9.66t9.12,3.31a17.63,17.63,0,0,0,5.74-.95,14.25,14.25,0,0,0,4.8-2.7Z"/><path class="cls-1" d="M559.54,421.76a6.63,6.63,0,0,1-2-4.86,6.49,6.49,0,0,1,2-4.73,6.79,6.79,0,0,1,5-2,6.94,6.94,0,0,1,5,2,6.28,6.28,0,0,1,2,4.66,7.06,7.06,0,0,1-12,5Zm.13,17.56h9.59v71.05h-9.59Z"/><path class="cls-1" d="M613.3,506.39a34,34,0,0,1-13-12.9,39.09,39.09,0,0,1,0-37.28,33.41,33.41,0,0,1,13-12.84,39.6,39.6,0,0,1,37,0,33,33,0,0,1,12.9,12.84,39.61,39.61,0,0,1,0,37.28,33.59,33.59,0,0,1-12.9,12.9,39.07,39.07,0,0,1-37,0Zm32.08-7.3a24,24,0,0,0,9.39-9.79,32.69,32.69,0,0,0,0-28.91,24.09,24.09,0,0,0-9.39-9.79,28.43,28.43,0,0,0-27.15,0,24.51,24.51,0,0,0-9.46,9.79,32.09,32.09,0,0,0,0,28.91,24.45,24.45,0,0,0,9.46,9.79,28.43,28.43,0,0,0,27.15,0Z"/><path class="cls-1" d="M751.69,446.55q7.9,7.77,7.9,22.62v41.2H750V470.12q0-11.07-5.54-16.89t-15.8-5.81q-11.49,0-18.17,6.83t-6.69,18.84v37.28h-9.59V439.32h9.19v13.1a26.61,26.61,0,0,1,10.87-10.06,34.77,34.77,0,0,1,16.14-3.58Q743.79,438.78,751.69,446.55Z"/><path class="cls-1" d="M834.55,410.14h9.6V510.37h-9.6Z"/><path class="cls-1" d="M923.84,445.74q7.42,6.94,7.43,20.6v44h-9.18V499.3a22,22,0,0,1-9.53,8.64,33.31,33.31,0,0,1-14.92,3.11q-11.89,0-18.91-5.68a19.51,19.51,0,0,1-.48-29.58q6.56-5.54,20.87-5.54h22.56v-4.32q0-9.18-5.13-14t-15-4.8a38.22,38.22,0,0,0-13,2.23,32.68,32.68,0,0,0-10.67,6.15l-4.33-7.16a38.45,38.45,0,0,1,13-7.09,50.33,50.33,0,0,1,15.94-2.5Q916.41,438.78,923.84,445.74Zm-10.8,54A22.21,22.21,0,0,0,921.68,489V477.41H899.39q-18.23,0-18.23,12.7a11.61,11.61,0,0,0,4.72,9.79q4.74,3.59,13.24,3.58A25.27,25.27,0,0,0,913,499.77Z"/><path class="cls-1" d="M1018.8,443.31a32.27,32.27,0,0,1,12.7,12.76,40.69,40.69,0,0,1,0,37.55,32.78,32.78,0,0,1-12.7,12.83,36,36,0,0,1-18.1,4.6,33.34,33.34,0,0,1-16-3.79,29.1,29.1,0,0,1-11.42-10.94v14.05H964.1V410.14h9.59v42.69a29.43,29.43,0,0,1,11.41-10.47,33.56,33.56,0,0,1,15.6-3.58A36.43,36.43,0,0,1,1018.8,443.31Zm-5.26,55.78a24.33,24.33,0,0,0,9.52-9.79,32.09,32.09,0,0,0,0-28.91,24.39,24.39,0,0,0-9.52-9.79,28.31,28.31,0,0,0-27.09,0,24.42,24.42,0,0,0-9.45,9.79,32,32,0,0,0,0,28.91,24.36,24.36,0,0,0,9.45,9.79,28.31,28.31,0,0,0,27.09,0Z"/><path class="cls-1" d="M1073,506.39a34,34,0,0,1-13-12.9,39.09,39.09,0,0,1,0-37.28,33.41,33.41,0,0,1,13-12.84,39.6,39.6,0,0,1,37,0,33,33,0,0,1,12.9,12.84,39.61,39.61,0,0,1,0,37.28,33.59,33.59,0,0,1-12.9,12.9,39.07,39.07,0,0,1-37,0Zm32.08-7.3a24,24,0,0,0,9.39-9.79,32.6,32.6,0,0,0,0-28.91,24,24,0,0,0-9.39-9.79,28.43,28.43,0,0,0-27.15,0,24.51,24.51,0,0,0-9.46,9.79,32.09,32.09,0,0,0,0,28.91,24.45,24.45,0,0,0,9.46,9.79,28.43,28.43,0,0,0,27.15,0Z"/><path class="cls-1" d="M1173.13,442.43q6.69-3.65,16.55-3.65v9.32l-2.3-.14q-11.22,0-17.56,6.89t-6.35,19.32v36.2h-9.59V439.32h9.19v13.91A23.21,23.21,0,0,1,1173.13,442.43Z"/><path class="cls-1" d="M1259.78,445.74q7.44,6.94,7.43,20.6v44H1258V499.3a22,22,0,0,1-9.52,8.64,33.38,33.38,0,0,1-14.93,3.11q-11.89,0-18.91-5.68a19.51,19.51,0,0,1-.48-29.58q6.55-5.54,20.87-5.54h22.56v-4.32q0-9.18-5.13-14t-15-4.8a38.23,38.23,0,0,0-13,2.23,32.79,32.79,0,0,0-10.67,6.15l-4.33-7.16a38.54,38.54,0,0,1,13-7.09,50.38,50.38,0,0,1,15.94-2.5Q1252.36,438.78,1259.78,445.74Zm-10.8,54a22.21,22.21,0,0,0,8.64-10.74V477.41h-22.29q-18.22,0-18.23,12.7a11.59,11.59,0,0,0,4.73,9.79q4.73,3.59,13.23,3.58A25.27,25.27,0,0,0,1249,499.77Z"/><path class="cls-1" d="M1337.45,506.05a18.1,18.1,0,0,1-6.68,3.71,26.84,26.84,0,0,1-8.31,1.29q-10,0-15.4-5.41t-5.4-15.26v-43H1289v-8.1h12.7V423.79h9.59v15.53h21.61v8.1h-21.61v42.42q0,6.35,3.17,9.66t9.12,3.31a17.63,17.63,0,0,0,5.74-.95,14.25,14.25,0,0,0,4.8-2.7Z"/><path class="cls-1" d="M1369.6,506.39a34.12,34.12,0,0,1-13-12.9,39.17,39.17,0,0,1,0-37.28,33.55,33.55,0,0,1,13-12.84,39.6,39.6,0,0,1,37,0,32.91,32.91,0,0,1,12.9,12.84,39.61,39.61,0,0,1,0,37.28,33.46,33.46,0,0,1-12.9,12.9,39.07,39.07,0,0,1-37,0Zm32.08-7.3a24,24,0,0,0,9.39-9.79,32.6,32.6,0,0,0,0-28.91,24,24,0,0,0-9.39-9.79,28.43,28.43,0,0,0-27.15,0,24.49,24.49,0,0,0-9.45,9.79,32,32,0,0,0,0,28.91,24.42,24.42,0,0,0,9.45,9.79,28.43,28.43,0,0,0,27.15,0Z"/><path class="cls-1" d="M1469.76,442.43q6.69-3.65,16.55-3.65v9.32L1484,448q-11.21,0-17.56,6.89t-6.34,19.32v36.2h-9.6V439.32h9.19v13.91A23.26,23.26,0,0,1,1469.76,442.43Z"/><path class="cls-1" d="M1573.16,439.32l-35.52,79.56q-4.32,10-10,14.18a22.27,22.27,0,0,1-13.64,4.19,27.86,27.86,0,0,1-9.59-1.62,20.79,20.79,0,0,1-7.7-4.86l4.46-7.16a17.68,17.68,0,0,0,13,5.4,13,13,0,0,0,8.3-2.7q3.45-2.7,6.42-9.18l3.11-6.89-31.75-70.92h10L1537,499.7l26.75-60.38Z"/></g></g></svg>
