<svg xmlns="http://www.w3.org/2000/svg" viewBox="0 0 1573.16 365.48"><defs><style>.cls-1{fill:#ffffff;}</style></defs><g id="Layer_2" data-name="Layer 2"><g id="Layer_1-2" data-name="Layer 1"><path class="cls-1" d="M0,0H58.05V365.48H0Z"/><path class="cls-1" d="M152,100.77V365.48H99.73V0h72.83l59.63,218.77V0h51.72V365.48H224.27Z"/><path class="cls-1" d="M377.31,100.77V365.48H325.07V0h72.82l59.63,218.77V0h51.72V365.48H449.61Z"/><path class="cls-1" d="M1000.06,0h58V313.27h95.52v52.21H1000.06Z"/><path class="cls-1" d="M1366.82,365.48h-58.57l-10-66.31H1227l-10,66.31h-53.3L1222.76,0h85ZM1234.37,249.57h55.94l-28-184.83Z"/><path class="cls-1" d="M1567.36,84.06v13c0,37.6-11.61,61.61-37.47,73.62,31.14,12,43.27,39.68,43.27,78.32v29.76c0,56.39-30.08,86.67-88.12,86.67h-91.3V0h87.6C1541.5,0,1567.36,27.67,1567.36,84.06ZM1451.79,52.21V148.8h22.69c21.64,0,34.83-9.39,34.83-38.63V89.8c0-26.1-9-37.59-29.55-37.59Zm0,148.8V313.27H1485c19.52,0,30.08-8.88,30.08-36V245.39c0-33.93-11.09-44.38-37.47-44.38Z"/><polygon class="cls-1" points="889.6 0.04 838.01 0.04 717.2 365.47 768.79 365.47 889.6 0.04"/><polygon class="cls-1" points="803.4 0 751.81 0 631 365.43 682.59 365.43 803.4 0"/><polygon class="cls-1" points="889.61 258.2 854.13 365.48 803.4 365.48 838.88 258.2 889.61 258.2"/></g></g></svg>
