<svg width="175" height="129" viewBox="0 0 175 129" fill="none" xmlns="http://www.w3.org/2000/svg">
<path d="M87.5 125C87.5 125 61.8387 122.37 45.5367 122.37C33.9532 122.37 17.8598 123.698 9.51388 124.466C6.55991 124.739 4 122.418 4 119.452V28.6487C4 26.496 5.37682 24.5891 7.45302 24.0203C10.9044 23.0747 16.5105 21.7399 22.2491 21.2185M87.5 125C87.5 125 112.308 122.37 128.61 122.37C140.278 122.37 156.958 123.717 165.499 124.483C168.447 124.747 171 122.43 171 119.47V28.5225C171 26.4313 169.696 24.5667 167.685 23.9934C164.675 23.1353 159.876 21.9855 154.385 21.4867M87.5 125V109.196M87.5 109.196C87.5 109.196 65.7499 106.587 52.7083 106.587C44.2587 106.587 33.6139 107.684 27.1654 108.457C24.1244 108.822 21.4226 106.441 21.4523 103.378L22.2491 21.2185M87.5 109.196C87.5 109.196 108.114 106.587 121.156 106.587C129.775 106.587 141.174 107.846 147.914 108.7C150.926 109.081 153.628 106.76 153.655 103.724L154.385 21.4867M22.2491 21.2185V11.0105C22.2491 8.50339 24.0993 6.38766 26.5893 6.09561C33.1457 5.32661 45.775 4 54.8745 4C66.3269 4 83.3704 6.10134 86.8616 6.54771C87.2934 6.60291 87.7069 6.60355 88.1388 6.54966C91.6825 6.10749 109.189 4 120.943 4C130.31 4 143.333 5.33877 150.028 6.10613C152.524 6.39231 154.385 8.51149 154.385 11.0247V21.4867" stroke="#3D3DD8" stroke-width="7.75" stroke-linecap="round" stroke-linejoin="round"/>
<path d="M57.93 87V20.5H68.095L109.8 71.705H104.765V20.5H117.02V87H106.855L65.15 35.795H70.185V87H57.93Z" fill="#3D3DD8"/>
</svg>
