<svg width="619" height="135" viewBox="0 0 619 135" fill="none" xmlns="http://www.w3.org/2000/svg">
<path d="M30.208 101V25.48H0.512V11.4H76.544V25.48H46.848V101H30.208ZM119.583 101V87.176L118.687 84.232V60.04C118.687 55.3467 117.279 51.72 114.463 49.16C111.647 46.5147 107.38 45.192 101.663 45.192C97.823 45.192 94.0257 45.7893 90.271 46.984C86.6017 48.1787 83.487 49.8427 80.927 51.976L74.655 40.328C78.3243 37.512 82.6763 35.4213 87.711 34.056C92.831 32.6053 98.1217 31.88 103.583 31.88C113.482 31.88 121.119 34.2693 126.495 39.048C131.956 43.7413 134.687 51.0373 134.687 60.936V101H119.583ZM98.079 101.896C92.959 101.896 88.479 101.043 84.639 99.336C80.799 97.544 77.8123 95.112 75.679 92.04C73.631 88.8827 72.607 85.3413 72.607 81.416C72.607 77.576 73.503 74.12 75.295 71.048C77.1723 67.976 80.2017 65.544 84.383 63.752C88.5643 61.96 94.111 61.064 101.023 61.064H120.863V71.688H102.175C96.7137 71.688 93.0443 72.584 91.167 74.376C89.2897 76.0827 88.351 78.216 88.351 80.776C88.351 83.6773 89.503 85.9813 91.807 87.688C94.111 89.3947 97.311 90.248 101.407 90.248C105.332 90.248 108.831 89.352 111.903 87.56C115.06 85.768 117.322 83.1227 118.687 79.624L121.375 89.224C119.839 93.2347 117.066 96.3493 113.055 98.568C109.13 100.787 104.138 101.896 98.079 101.896ZM148.821 101V6.02399H164.821V101H148.821ZM221.533 101V87.176L220.637 84.232V60.04C220.637 55.3467 219.229 51.72 216.413 49.16C213.597 46.5147 209.33 45.192 203.613 45.192C199.773 45.192 195.976 45.7893 192.221 46.984C188.552 48.1787 185.437 49.8427 182.877 51.976L176.605 40.328C180.274 37.512 184.626 35.4213 189.661 34.056C194.781 32.6053 200.072 31.88 205.533 31.88C215.432 31.88 223.069 34.2693 228.445 39.048C233.906 43.7413 236.637 51.0373 236.637 60.936V101H221.533ZM200.029 101.896C194.909 101.896 190.429 101.043 186.589 99.336C182.749 97.544 179.762 95.112 177.629 92.04C175.581 88.8827 174.557 85.3413 174.557 81.416C174.557 77.576 175.453 74.12 177.245 71.048C179.122 67.976 182.152 65.544 186.333 63.752C190.514 61.96 196.061 61.064 202.973 61.064H222.813V71.688H204.125C198.664 71.688 194.994 72.584 193.117 74.376C191.24 76.0827 190.301 78.216 190.301 80.776C190.301 83.6773 191.453 85.9813 193.757 87.688C196.061 89.3947 199.261 90.248 203.357 90.248C207.282 90.248 210.781 89.352 213.853 87.56C217.01 85.768 219.272 83.1227 220.637 79.624L223.325 89.224C221.789 93.2347 219.016 96.3493 215.005 98.568C211.08 100.787 206.088 101.896 200.029 101.896ZM288.659 101.896C283.112 101.896 278.035 100.616 273.427 98.056C268.904 95.496 265.278 91.656 262.547 86.536C259.902 81.3307 258.579 74.76 258.579 66.824C258.579 58.8027 259.859 52.232 262.419 47.112C265.064 41.992 268.648 38.1947 273.171 35.72C277.694 33.16 282.856 31.88 288.659 31.88C295.4 31.88 301.331 33.3307 306.451 36.232C311.656 39.1333 315.752 43.1867 318.739 48.392C321.811 53.5973 323.347 59.7413 323.347 66.824C323.347 73.9067 321.811 80.0933 318.739 85.384C315.752 90.5893 311.656 94.6427 306.451 97.544C301.331 100.445 295.4 101.896 288.659 101.896ZM250.771 125.832V32.648H266.003V48.776L265.491 66.952L266.771 85.128V125.832H250.771ZM286.867 88.2C290.707 88.2 294.12 87.3467 297.107 85.64C300.179 83.9333 302.611 81.4587 304.403 78.216C306.195 74.9733 307.091 71.176 307.091 66.824C307.091 62.3867 306.195 58.5893 304.403 55.432C302.611 52.1893 300.179 49.7147 297.107 48.008C294.12 46.3013 290.707 45.448 286.867 45.448C283.027 45.448 279.571 46.3013 276.499 48.008C273.427 49.7147 270.995 52.1893 269.203 55.432C267.411 58.5893 266.515 62.3867 266.515 66.824C266.515 71.176 267.411 74.9733 269.203 78.216C270.995 81.4587 273.427 83.9333 276.499 85.64C279.571 87.3467 283.027 88.2 286.867 88.2ZM357.849 101.896C350.34 101.896 344.537 99.976 340.441 96.136C336.345 92.2107 334.297 86.4507 334.297 78.856V17.544H350.297V78.472C350.297 81.7147 351.108 84.232 352.729 86.024C354.436 87.816 356.782 88.712 359.769 88.712C363.353 88.712 366.34 87.7733 368.729 85.896L373.209 97.288C371.332 98.824 369.028 99.976 366.297 100.744C363.566 101.512 360.75 101.896 357.849 101.896ZM323.033 45.96V33.16H368.601V45.96H323.033ZM422.083 101V87.176L421.187 84.232V60.04C421.187 55.3467 419.779 51.72 416.963 49.16C414.147 46.5147 409.88 45.192 404.163 45.192C400.323 45.192 396.526 45.7893 392.771 46.984C389.102 48.1787 385.987 49.8427 383.427 51.976L377.155 40.328C380.824 37.512 385.176 35.4213 390.211 34.056C395.331 32.6053 400.622 31.88 406.083 31.88C415.982 31.88 423.619 34.2693 428.995 39.048C434.456 43.7413 437.187 51.0373 437.187 60.936V101H422.083ZM400.579 101.896C395.459 101.896 390.979 101.043 387.139 99.336C383.299 97.544 380.312 95.112 378.179 92.04C376.131 88.8827 375.107 85.3413 375.107 81.416C375.107 77.576 376.003 74.12 377.795 71.048C379.672 67.976 382.702 65.544 386.883 63.752C391.064 61.96 396.611 61.064 403.523 61.064H423.363V71.688H404.675C399.214 71.688 395.544 72.584 393.667 74.376C391.79 76.0827 390.851 78.216 390.851 80.776C390.851 83.6773 392.003 85.9813 394.307 87.688C396.611 89.3947 399.811 90.248 403.907 90.248C407.832 90.248 411.331 89.352 414.403 87.56C417.56 85.768 419.822 83.1227 421.187 79.624L423.875 89.224C422.339 93.2347 419.566 96.3493 415.555 98.568C411.63 100.787 406.638 101.896 400.579 101.896Z" fill="#3D3DD8"/>
<path d="M451.453 30.0203C449.377 30.5891 448 32.496 448 34.6487V125.452C448 128.418 450.56 130.739 453.514 130.466C461.86 129.698 477.953 128.37 489.537 128.37C505.839 128.37 531.5 131 531.5 131V115.196C531.5 115.196 509.75 112.587 496.708 112.587C488.259 112.587 477.614 113.684 471.165 114.457C468.124 114.822 465.423 112.441 465.452 109.378L466.249 27.2185C460.51 27.7399 454.904 29.0747 451.453 30.0203Z" fill="#F4F4F4"/>
<path d="M609.499 130.483C612.447 130.747 615 128.43 615 125.47V34.5225C615 32.4313 613.696 30.5667 611.685 29.9934C608.675 29.1353 603.876 27.9855 598.385 27.4867L597.655 109.724C597.628 112.76 594.926 115.081 591.914 114.7C585.174 113.846 573.775 112.587 565.156 112.587C552.114 112.587 531.5 115.196 531.5 115.196V131C531.5 131 556.308 128.37 572.61 128.37C584.278 128.37 600.958 129.717 609.499 130.483Z" fill="#F4F4F4"/>
<path d="M531.5 131C531.5 131 505.839 128.37 489.537 128.37C477.953 128.37 461.86 129.698 453.514 130.466C450.56 130.739 448 128.418 448 125.452V34.6487C448 32.496 449.377 30.5891 451.453 30.0203C454.904 29.0747 460.51 27.7399 466.249 27.2185M531.5 131C531.5 131 556.308 128.37 572.61 128.37C584.278 128.37 600.958 129.717 609.499 130.483C612.447 130.747 615 128.43 615 125.47V34.5225C615 32.4313 613.696 30.5667 611.685 29.9934C608.675 29.1353 603.876 27.9855 598.385 27.4867M531.5 131V115.196M531.5 115.196C531.5 115.196 509.75 112.587 496.708 112.587C488.259 112.587 477.614 113.684 471.165 114.457C468.124 114.822 465.423 112.441 465.452 109.378L466.249 27.2185M531.5 115.196C531.5 115.196 552.114 112.587 565.156 112.587C573.775 112.587 585.174 113.846 591.914 114.7C594.926 115.081 597.628 112.76 597.655 109.724L598.385 27.4867M466.249 27.2185V17.0105C466.249 14.5034 468.099 12.3877 470.589 12.0956C477.146 11.3266 489.775 10 498.875 10C510.327 10 527.37 12.1013 530.862 12.5477C531.293 12.6029 531.707 12.6035 532.139 12.5497C535.683 12.1075 553.189 10 564.943 10C574.31 10 587.333 11.3388 594.028 12.1061C596.524 12.3923 598.385 14.5115 598.385 17.0247V27.4867" stroke="#3D3DD8" stroke-width="7.75" stroke-linecap="round" stroke-linejoin="round"/>
<path d="M501.93 93V26.5H512.095L553.8 77.705H548.765V26.5H561.02V93H550.855L509.15 41.795H514.185V93H501.93Z" fill="#3D3DD8"/>
</svg>
