<svg width="24" height="24" viewBox="0 0 24 24" fill="none" xmlns="http://www.w3.org/2000/svg">
<path d="M10.512 4.008V19.992C10.512 20.28 10.728 20.496 10.992 20.496H13.008C13.272 20.496 13.512 20.28 13.512 19.992V4.008C13.512 3.72 13.272 3.504 13.008 3.504H10.992C10.728 3.504 10.512 3.72 10.512 4.008ZM10.008 1.992H13.992C14.544 1.992 15 2.448 15 3V21C15 21.552 14.544 22.008 13.992 22.008H10.008C9.456 22.008 9 21.552 9 21V3C9 2.448 9.456 1.992 10.008 1.992ZM18 20.496H19.992C20.28 20.496 20.496 20.28 20.496 19.992V9C20.496 8.712 20.28 8.496 19.992 8.496H18C17.736 8.496 17.496 8.712 17.496 9V19.992C17.496 20.28 17.736 20.496 18 20.496ZM16.992 7.008H21C21.552 7.008 22.008 7.44 22.008 7.992V21C22.008 21.552 21.552 22.008 21 22.008H16.992C16.44 22.008 16.008 21.552 16.008 21V7.992C16.008 7.44 16.44 7.008 16.992 7.008ZM4.008 20.496H6C6.288 20.496 6.504 20.28 6.504 19.992V13.992C6.504 13.728 6.288 13.488 6 13.488H4.008C3.72 13.488 3.504 13.728 3.504 13.992V19.992C3.504 20.28 3.72 20.496 4.008 20.496ZM3 12H7.008C7.56 12 7.992 12.456 7.992 13.008V21C7.992 21.552 7.56 22.008 7.008 22.008H3C2.448 22.008 1.992 21.552 1.992 21V13.008C1.992 12.456 2.448 12 3 12Z" fill="currentColor"/>
</svg>
