<?xml version="1.0" standalone="no"?>
<!DOCTYPE svg PUBLIC "-//W3C//DTD SVG 20010904//EN"
 "http://www.w3.org/TR/2001/REC-SVG-20010904/DTD/svg10.dtd">
<svg version="1.0" xmlns="http://www.w3.org/2000/svg"
 width="700.000000pt" height="700.000000pt" viewBox="0 0 700.000000 700.000000"
 preserveAspectRatio="xMidYMid meet">
<metadata>
Created by potrace 1.14, written by Peter Selinger 2001-2017
</metadata>
<g transform="translate(0.000000,700.000000) scale(0.100000,-0.100000)"
fill="#000000" stroke="none">
<path d="M2057 6074 c-1 -1 -67 -5 -147 -8 -80 -4 -166 -9 -192 -11 -26 -2
-80 -7 -120 -10 -40 -3 -93 -8 -118 -10 -25 -2 -74 -6 -110 -10 -36 -3 -83 -8
-105 -10 -141 -12 -289 -36 -301 -48 -4 -4 -14 -7 -21 -7 -32 0 -117 -76 -158
-141 -38 -59 -48 -115 -50 -279 -2 -85 -3 -158 -4 -162 -1 -6 -28 -14 -86 -23
-16 -3 -41 -8 -55 -10 -14 -3 -38 -8 -55 -11 -153 -28 -322 -75 -365 -103 -76
-49 -136 -132 -155 -214 -8 -39 -11 -530 -10 -1917 1 -2010 -2 -1893 51 -1980
50 -81 129 -139 224 -163 30 -8 69 -13 85 -11 17 1 68 5 115 9 47 3 101 8 120
10 19 2 73 6 120 10 47 3 105 8 130 10 46 4 207 15 290 20 506 30 1006 27
1505 -9 33 -2 102 -7 154 -10 52 -4 106 -8 120 -11 14 -2 68 -7 120 -10 51 -3
107 -7 125 -10 17 -2 67 -7 111 -10 44 -4 103 -9 130 -12 66 -7 117 -7 190 0
33 4 89 9 125 12 36 3 85 8 110 11 25 2 72 7 105 9 33 3 85 8 115 10 30 3 91
7 135 10 44 3 109 7 145 10 36 3 101 7 145 10 44 2 130 8 190 12 61 4 272 7
470 7 319 0 433 -3 685 -19 36 -2 108 -6 160 -9 52 -4 118 -8 146 -11 28 -2
91 -7 140 -11 101 -7 140 -10 239 -19 120 -12 158 -12 210 0 113 26 198 96
249 205 l30 65 0 1895 0 1895 -31 67 c-17 36 -48 82 -68 101 -41 38 -117 83
-155 91 -14 3 -61 14 -105 25 -44 11 -96 23 -115 26 -19 4 -68 13 -108 20 -40
7 -75 15 -77 16 -2 2 -5 85 -7 184 -3 173 -4 182 -31 241 -57 123 -166 194
-322 209 -71 7 -139 14 -180 19 -87 10 -166 18 -220 21 -33 2 -60 5 -60 5 0 1
-22 3 -50 5 -48 4 -102 8 -325 21 -210 13 -545 8 -791 -11 -36 -3 -93 -7 -125
-10 -32 -2 -59 -4 -59 -5 0 -1 -22 -3 -50 -5 -90 -6 -199 -16 -225 -20 -14 -2
-56 -7 -95 -10 -38 -3 -115 -12 -170 -19 -97 -13 -140 -13 -235 -2 -24 3 -67
8 -95 11 -27 3 -63 8 -80 10 -16 2 -56 6 -87 9 -32 4 -83 9 -113 12 -31 3 -75
7 -98 9 -23 2 -73 6 -112 9 -232 20 -375 28 -583 30 -89 1 -163 1 -165 0z
m418 -318 c66 -3 147 -8 180 -11 33 -3 92 -7 130 -10 39 -3 90 -8 115 -10 25
-3 70 -7 100 -10 76 -7 135 -14 200 -21 91 -10 103 -11 165 -20 101 -14 213
-10 356 11 19 2 61 7 93 10 33 3 71 7 85 9 14 3 62 8 106 11 44 4 98 8 120 10
38 4 154 13 240 20 266 22 761 22 955 0 25 -3 79 -8 120 -10 41 -3 98 -7 125
-10 28 -3 70 -8 95 -10 25 -3 72 -7 105 -10 33 -2 79 -7 103 -10 23 -3 61 -7
83 -10 77 -9 72 71 64 -910 -7 -1025 -15 -1760 -18 -1828 -1 -26 2 -47 6 -47
5 0 5 -5 2 -11 -4 -5 -8 -227 -10 -492 -3 -481 -3 -482 -25 -499 -12 -10 -25
-16 -29 -14 -3 2 -36 7 -73 10 -37 4 -77 9 -90 11 -13 2 -52 7 -88 10 -36 3
-78 8 -95 10 -16 2 -61 7 -100 10 -38 3 -90 8 -115 10 -45 4 -182 14 -275 20
-175 11 -679 -1 -835 -20 -19 -2 -71 -7 -115 -10 -112 -8 -183 -14 -235 -20
-25 -3 -70 -8 -100 -10 -30 -3 -66 -7 -78 -9 -87 -18 -288 -25 -382 -13 -96
13 -186 22 -310 32 -30 2 -75 7 -100 9 -70 8 -168 16 -250 21 -41 2 -113 7
-160 12 -103 9 -757 9 -855 0 -38 -4 -101 -9 -140 -12 -38 -3 -86 -8 -105 -10
-19 -2 -64 -7 -100 -10 -156 -14 -252 -25 -271 -31 -8 -2 -24 4 -35 15 -23 21
-22 -105 -9 1216 3 374 8 870 10 1102 2 232 6 427 10 433 3 5 1 10 -5 10 -6 0
-8 5 -5 10 4 6 8 229 9 496 2 470 3 486 22 497 10 6 26 12 34 12 8 1 47 5 85
9 39 3 81 8 95 11 14 2 59 7 100 10 41 3 91 8 110 10 42 4 177 16 240 20 25 2
106 7 180 10 74 4 136 8 137 9 4 3 307 -2 428 -8z m-1744 -718 c0 -22 -3 -538
-6 -873 -2 -176 -6 -617 -10 -980 -13 -1338 -14 -1301 15 -1374 36 -90 109
-163 205 -202 38 -16 90 -25 125 -23 52 2 171 14 205 19 31 5 93 11 205 21 36
3 81 7 100 9 203 21 717 27 930 13 283 -20 352 -25 420 -33 25 -3 77 -8 115
-11 39 -3 84 -7 100 -9 132 -14 172 -17 187 -17 22 1 24 -13 23 -178 l0 -145
-35 1 c-39 2 -185 13 -240 19 -19 2 -75 7 -125 10 -49 3 -110 8 -135 10 -80 7
-203 15 -295 20 -49 3 -148 9 -220 13 -254 14 -918 7 -1165 -13 -30 -2 -98 -6
-150 -9 -52 -3 -117 -8 -145 -11 -56 -5 -164 -14 -240 -19 -73 -5 -207 -18
-226 -21 -9 -2 -25 4 -35 14 -18 17 -19 77 -19 1849 0 1204 3 1834 10 1841 14
13 212 64 299 76 16 3 30 6 32 8 2 1 19 4 39 5 23 2 35 -2 36 -10z m5682 -9
c96 -17 112 -21 187 -40 41 -11 77 -23 80 -25 11 -11 5 -3677 -6 -3692 -11
-16 -58 -18 -158 -6 -34 3 -79 8 -101 9 -170 11 -254 17 -275 20 -14 3 -74 7
-135 11 -60 3 -137 7 -170 10 -420 26 -954 26 -1380 -1 -125 -8 -249 -16 -285
-20 -19 -1 -76 -6 -126 -9 -50 -4 -104 -9 -120 -11 -39 -4 -201 -17 -239 -19
l-29 -1 -1 153 c0 153 1 166 20 169 28 4 136 15 180 18 28 2 66 6 85 9 19 3
67 8 105 11 39 3 93 8 120 10 57 5 139 12 270 22 129 10 672 9 790 0 55 -5
116 -10 135 -12 19 -1 71 -6 115 -9 44 -4 87 -9 96 -11 8 -3 46 -7 85 -10 38
-2 83 -7 99 -9 141 -22 204 -24 270 -9 75 17 158 72 206 137 67 89 69 106 74
663 11 1071 15 1629 19 2125 2 284 7 522 11 528 3 5 11 8 16 5 5 -4 33 -10 62
-16z"/>
<path d="M2319 5248 c0 -7 -2 -606 -2 -1330 l-2 -1316 38 -4 c21 -2 41 0 43 4
3 5 10 6 15 2 9 -5 170 -8 194 -4 6 1 15 1 20 0 10 -2 148 0 171 2 8 1 12 243
12 892 1 490 1 893 2 895 0 7 27 -24 100 -114 36 -44 72 -89 82 -100 9 -11 71
-87 138 -170 67 -82 136 -168 155 -190 18 -22 49 -60 69 -85 19 -25 47 -58 60
-75 13 -16 41 -50 61 -75 19 -25 44 -54 53 -65 10 -11 56 -67 102 -125 47 -58
92 -114 102 -125 22 -27 136 -166 151 -185 23 -29 232 -285 249 -305 9 -11 26
-31 37 -44 12 -13 21 -27 21 -30 0 -3 20 -27 43 -53 47 -51 39 -50 227 -48 97
1 108 1 169 0 24 0 46 1 48 4 3 3 6 2366 3 2624 l0 32 -245 0 -245 0 0 -897
-1 -898 -30 35 c-17 19 -65 78 -107 130 -42 52 -79 97 -82 100 -3 3 -21 25
-40 50 -19 25 -43 54 -53 65 -11 11 -31 36 -45 55 -15 19 -29 37 -32 40 -3 3
-35 41 -70 85 -36 44 -72 89 -82 100 -9 11 -71 88 -138 170 -67 83 -129 159
-138 170 -10 11 -53 65 -97 120 -44 55 -82 102 -85 105 -6 5 -213 258 -265
324 -16 21 -40 50 -53 65 -12 14 -50 61 -85 103 l-62 78 -202 0 c-155 0 -203
-3 -204 -12z"/>
</g>
</svg>
