<?xml version="1.0" standalone="no"?>
<!DOCTYPE svg PUBLIC "-//W3C//DTD SVG 20010904//EN"
 "http://www.w3.org/TR/2001/REC-SVG-20010904/DTD/svg10.dtd">
<svg version="1.0" xmlns="http://www.w3.org/2000/svg"
 width="2532.000000pt" height="2532.000000pt" viewBox="0 0 2532.000000 2532.000000"
 preserveAspectRatio="xMidYMid meet">
<metadata>
Created by potrace 1.14, written by Peter Selinger 2001-2017
</metadata>
<g transform="translate(0.000000,2532.000000) scale(0.100000,-0.100000)"
fill="#000000" stroke="none">
<path d="M20 18431 l0 -2776 192 -48 c168 -41 379 -96 543 -142 28 -8 91 -25
140 -39 215 -59 727 -215 925 -282 41 -14 82 -27 90 -29 18 -4 477 -163 505
-175 11 -5 47 -18 80 -30 33 -11 67 -24 75 -27 8 -3 17 -7 20 -7 10 -3 312
-118 355 -136 11 -5 101 -40 200 -80 99 -39 189 -75 200 -80 11 -5 101 -44
200 -86 170 -72 374 -162 530 -234 39 -18 95 -44 125 -57 163 -74 796 -393
1000 -505 36 -19 101 -55 145 -78 117 -64 476 -270 507 -291 14 -11 28 -19 31
-19 7 0 375 -226 537 -330 158 -101 592 -391 600 -400 3 -3 70 -52 150 -107
235 -165 701 -518 865 -654 11 -10 74 -61 140 -115 66 -54 122 -100 125 -103
4 -5 66 -58 160 -137 69 -58 288 -251 310 -273 15 -15 44 -41 65 -60 230 -196
895 -862 1181 -1181 27 -30 58 -64 69 -75 39 -39 282 -322 412 -480 73 -88
139 -167 147 -175 7 -8 66 -82 131 -165 64 -82 124 -159 133 -170 95 -115 517
-701 630 -875 19 -30 38 -57 42 -60 3 -3 9 -12 13 -20 4 -8 54 -87 112 -175
145 -219 447 -709 478 -775 4 -8 15 -28 26 -45 42 -69 187 -331 266 -480 32
-61 61 -114 66 -120 25 -34 389 -780 389 -798 0 -15 31 16 34 34 4 21 63 144
205 429 146 291 250 490 356 680 23 41 53 95 67 120 14 25 46 80 72 123 25 43
46 80 46 82 0 2 51 89 114 193 481 800 1051 1601 1602 2252 149 176 213 251
240 280 17 19 75 85 129 145 54 61 113 126 131 145 18 19 66 71 106 115 102
112 763 772 877 875 52 47 106 96 121 110 15 14 62 57 106 96 68 61 123 110
298 262 84 72 287 241 411 341 77 61 147 117 155 124 164 133 531 406 775 577
94 66 175 123 180 127 26 21 494 329 605 398 161 101 425 262 470 288 19 11
49 28 65 38 17 11 37 22 45 26 8 4 58 32 110 63 103 61 126 74 390 218 288
156 687 360 895 457 44 21 118 55 165 77 113 53 194 91 255 118 28 12 75 33
105 47 649 294 1620 657 2378 888 301 92 340 104 467 140 72 20 159 45 195 55
36 10 79 22 95 26 17 4 32 8 35 9 3 1 20 5 38 9 l32 8 0 2848 0 2847 -1007 -2
c-555 -1 -1064 -5 -1133 -8 -501 -23 -521 -24 -650 -31 -150 -9 -250 -16 -317
-21 -35 -3 -93 -7 -130 -10 -38 -3 -86 -8 -108 -10 -22 -2 -76 -7 -120 -10
-44 -3 -93 -7 -110 -10 -16 -2 -66 -7 -110 -11 -44 -3 -88 -8 -97 -9 -9 -2
-48 -7 -85 -10 -37 -4 -79 -8 -93 -10 -14 -2 -50 -6 -80 -10 -30 -4 -66 -8
-80 -10 -14 -2 -50 -7 -80 -10 -30 -3 -66 -8 -80 -10 -44 -6 -114 -16 -141
-21 -15 -2 -47 -6 -70 -9 -24 -3 -73 -10 -109 -16 -75 -11 -65 -10 -270 -44
-85 -14 -171 -28 -190 -31 -19 -3 -43 -7 -52 -10 -20 -6 -44 -11 -94 -18 -22
-4 -115 -23 -209 -42 -93 -20 -177 -37 -185 -39 -110 -22 -579 -135 -645 -156
-16 -5 -133 -38 -260 -75 -252 -72 -626 -194 -836 -274 -74 -29 -138 -53 -144
-54 -5 -2 -21 -8 -35 -13 -14 -6 -59 -24 -100 -41 -100 -40 -274 -114 -385
-164 -94 -42 -532 -257 -575 -282 -14 -8 -101 -58 -195 -111 -93 -53 -179
-101 -190 -108 -622 -380 -1055 -716 -1515 -1177 -267 -267 -294 -296 -588
-655 -96 -117 -375 -519 -469 -675 -170 -281 -368 -658 -466 -890 -9 -19 -34
-77 -57 -129 -22 -51 -54 -130 -71 -175 -17 -44 -35 -90 -40 -101 -15 -34
-129 -358 -133 -380 -1 -5 -14 -46 -28 -90 -82 -250 -173 -601 -234 -900 -2
-11 -6 -31 -9 -45 -3 -14 -12 -63 -21 -110 -9 -47 -18 -94 -20 -105 -3 -11 -7
-38 -10 -60 -7 -47 -24 -71 -25 -35 0 14 -2 32 -4 40 -1 8 -5 33 -9 55 -3 22
-10 60 -15 85 -5 25 -19 95 -32 155 -18 91 -77 352 -94 418 -3 9 -7 26 -9 37
-22 97 -124 444 -187 630 -138 414 -354 913 -534 1239 -23 42 -55 99 -70 126
-219 394 -529 832 -855 1209 -147 169 -497 520 -675 675 -419 366 -922 721
-1390 981 -215 119 -544 285 -745 375 -58 26 -129 58 -158 71 -29 13 -55 24
-57 24 -3 0 -27 9 -53 21 -78 35 -83 37 -192 80 -315 123 -698 254 -1044 354
-215 62 -656 178 -726 190 -19 3 -60 12 -90 20 -30 8 -66 16 -80 19 -14 2 -36
7 -50 10 -14 3 -36 8 -50 10 -14 2 -45 9 -70 15 -25 5 -61 13 -80 16 -19 3
-51 10 -70 15 -19 5 -48 11 -65 13 -16 3 -95 17 -175 31 -80 14 -160 28 -177
31 -76 12 -92 15 -178 29 -49 8 -155 24 -235 36 -140 20 -162 23 -260 35 -25
3 -61 7 -80 10 -33 4 -68 9 -157 20 -21 2 -63 7 -93 10 -30 3 -71 8 -90 10
-73 8 -242 24 -310 30 -25 2 -74 6 -110 9 -166 15 -272 24 -395 31 -38 2 -108
6 -155 9 -47 3 -132 8 -190 11 -58 3 -154 8 -215 11 -284 14 -457 16 -1397 19
l-1008 3 0 -2777z"/>
<path d="M20 11490 c0 -929 3 -1691 8 -1693 4 -3 43 -8 86 -12 43 -4 86 -8 95
-10 9 -1 50 -6 91 -10 41 -4 89 -9 105 -11 17 -2 51 -6 77 -9 26 -2 60 -7 75
-9 16 -2 53 -7 84 -11 31 -3 65 -7 75 -9 11 -2 48 -7 84 -11 36 -4 72 -8 80
-10 8 -1 40 -6 70 -10 58 -7 59 -7 185 -25 88 -13 89 -13 225 -34 110 -17 161
-25 210 -32 59 -9 380 -64 460 -79 41 -8 91 -16 110 -19 19 -3 80 -14 135 -25
55 -11 111 -22 125 -25 14 -2 59 -11 100 -20 41 -8 86 -17 100 -20 75 -14 137
-27 169 -35 20 -6 50 -12 66 -14 17 -3 53 -10 80 -17 28 -6 57 -13 65 -15 8
-2 45 -10 81 -19 37 -8 79 -17 93 -20 14 -3 34 -7 44 -10 9 -3 28 -7 42 -10
14 -2 117 -27 230 -55 113 -29 214 -54 226 -56 11 -3 72 -18 135 -35 63 -17
121 -33 129 -35 23 -5 156 -41 240 -65 41 -11 86 -23 99 -26 14 -3 28 -7 33
-10 4 -3 40 -13 80 -24 63 -16 264 -78 626 -190 94 -30 475 -156 502 -167 8
-3 20 -7 25 -9 12 -3 213 -75 390 -139 221 -80 743 -281 830 -320 17 -7 64
-27 105 -43 118 -47 578 -245 715 -307 28 -12 73 -33 100 -45 106 -48 373
-173 620 -290 128 -61 608 -301 775 -387 290 -151 396 -206 404 -214 21 -19
26 -8 9 19 -50 78 -356 486 -482 642 -91 112 -225 276 -230 280 -3 3 -28 32
-55 65 -28 33 -68 80 -90 105 -23 25 -61 69 -86 98 -25 29 -63 72 -85 96 -22
24 -83 90 -135 147 -222 241 -545 566 -811 814 -73 69 -399 359 -443 396 -17
13 -48 40 -70 60 -122 106 -574 469 -646 519 -19 13 -37 27 -40 30 -3 4 -41
33 -85 65 -44 32 -82 61 -85 64 -3 3 -18 15 -35 27 -48 33 -259 184 -276 197
-28 22 -72 52 -199 137 -69 47 -129 88 -135 92 -9 7 -105 70 -305 200 -201
130 -658 403 -880 525 -471 259 -932 493 -1310 663 -58 26 -127 57 -155 70
-107 48 -136 61 -310 135 -99 42 -295 122 -435 177 -140 55 -264 104 -275 109
-197 83 -1293 453 -1470 495 -5 2 -82 23 -170 49 -88 25 -168 48 -177 50 -17
4 -18 -82 -18 -1685z"/>
<path d="M25240 12999 c-395 -126 -969 -321 -1045 -355 -16 -8 -61 -25 -100
-38 -147 -51 -824 -324 -884 -356 -9 -5 -88 -40 -176 -79 -88 -38 -205 -91
-260 -116 -55 -26 -136 -64 -180 -84 -109 -51 -579 -285 -585 -291 -3 -3 -36
-22 -75 -41 -123 -62 -383 -204 -565 -309 -36 -21 -81 -47 -100 -57 -121 -68
-503 -302 -644 -395 -49 -32 -90 -58 -92 -58 -6 0 -522 -349 -549 -372 -5 -5
-86 -64 -180 -131 -226 -163 -379 -280 -660 -504 -33 -27 -121 -99 -125 -103
-3 -3 -59 -50 -125 -105 -625 -522 -1288 -1184 -1826 -1825 -106 -126 -350
-431 -404 -505 -16 -22 -31 -42 -35 -45 -15 -14 -280 -378 -280 -385 0 -3 55
24 123 59 271 143 425 222 692 355 266 133 654 321 660 321 2 0 60 27 130 60
70 33 128 60 130 60 2 0 41 17 87 39 793 368 1919 799 2813 1076 83 25 161 50
175 55 20 8 405 121 460 135 8 3 125 34 260 70 135 37 252 68 260 70 8 2 96
24 195 49 99 24 192 47 208 50 71 15 81 17 87 21 4 2 20 7 36 9 16 3 90 19
164 36 139 32 827 174 890 184 38 6 193 33 225 40 17 3 94 16 193 31 12 2 30
6 40 9 9 2 37 7 62 10 25 3 54 8 65 10 30 5 96 16 130 21 17 2 48 6 70 10 153
24 226 35 270 40 28 3 57 7 65 10 8 2 40 7 70 10 30 3 66 7 80 9 14 2 52 7 85
10 33 4 69 9 80 11 11 2 47 7 80 10 33 4 61 8 63 9 1 2 1 741 0 1643 l-3 1640
-55 -18z"/>
<path d="M20 5805 l0 -1705 4803 0 4802 1 -55 34 c-30 19 -60 38 -66 42 -5 4
-21 14 -35 22 -13 8 -82 50 -154 94 -153 93 -561 327 -570 327 -4 0 -19 8 -33
18 -15 11 -81 47 -147 82 -66 35 -143 75 -170 90 -208 114 -795 398 -1160 560
-121 54 -308 135 -415 180 -107 45 -208 87 -225 95 -48 21 -618 246 -635 250
-3 1 -16 6 -30 12 -260 107 -1292 459 -1770 603 -246 74 -632 188 -660 195 -8
2 -71 19 -140 39 -118 33 -203 56 -225 62 -5 1 -37 10 -70 19 -82 23 -202 55
-245 65 -19 5 -195 49 -391 99 -196 50 -367 92 -380 95 -13 2 -73 16 -134 31
-168 40 -267 64 -295 69 -14 3 -34 7 -45 10 -60 14 -343 77 -360 80 -11 2 -65
14 -120 26 -121 26 -85 18 -405 84 -146 30 -278 57 -295 60 -16 2 -66 12 -110
21 -44 9 -91 18 -105 21 -14 2 -47 9 -73 14 -26 6 -57 10 -67 10 -20 0 -20
-21 -20 -1705z"/>
<path d="M25260 7398 c-19 -4 -50 -9 -67 -12 -18 -3 -54 -11 -80 -17 -27 -6
-59 -13 -73 -15 -14 -3 -110 -23 -215 -45 -104 -23 -197 -43 -208 -45 -10 -2
-26 -5 -35 -8 -9 -3 -28 -7 -42 -10 -35 -6 -387 -86 -620 -141 -297 -70 -869
-216 -1140 -290 -8 -2 -80 -22 -160 -44 -395 -108 -947 -272 -1275 -379 -27
-9 -54 -17 -60 -18 -68 -15 -949 -322 -1255 -437 -36 -14 -102 -38 -147 -55
-178 -67 -669 -265 -678 -273 -5 -5 -15 -9 -23 -9 -8 0 -43 -13 -79 -30 -35
-16 -66 -30 -69 -30 -2 0 -26 -10 -52 -21 -26 -12 -60 -27 -77 -34 -197 -85
-436 -192 -623 -281 -74 -35 -136 -64 -138 -64 -13 0 -822 -410 -849 -430 -5
-4 -41 -24 -80 -44 -38 -20 -77 -41 -85 -46 -26 -17 -263 -150 -267 -150 -1 0
-31 -17 -65 -38 -35 -21 -70 -41 -78 -45 -8 -4 -44 -25 -79 -47 -34 -22 -67
-40 -71 -40 -5 0 -10 -3 -12 -7 -1 -5 -15 -15 -31 -23 -15 -8 -82 -49 -148
-90 l-120 -75 4517 -3 c2485 -1 4519 -1 4521 1 2 2 2 746 1 1653 l-3 1650 -35
-8z"/>
</g>
</svg>
