<svg width="24" height="24" viewBox="0 0 24 24" fill="none" xmlns="http://www.w3.org/2000/svg">
<g clip-path="url(#clip0_1200_1266)">
<mask id="path-1-inside-1_1200_1266" fill="white">
<path d="M23.3187 5.72597C23.2736 5.72442 22.3467 5.69312 20.986 5.72319V2.93345C20.986 2.52221 20.6349 2.19604 20.2214 2.23002C17.5084 2.45651 14.0567 3.65534 12 5.84192C9.94334 3.65534 6.49162 2.45651 3.77859 2.23002C3.36588 2.19642 3.01398 2.52112 3.01398 2.93345V5.79863C2.24089 5.76945 1.50965 5.74889 0.726824 5.72588C0.332 5.71341 0 6.03143 0 6.43143V19.2865C0 19.658 0.287859 19.9659 0.658494 19.9908C3.4664 20.1798 8.16988 20.201 11.7231 21.7165C12.0398 21.8518 12.324 21.6964 12.277 21.7165C15.8301 20.2011 20.5328 20.1799 23.3416 19.9908C23.7122 19.9659 24.0001 19.658 24.0001 19.2865V6.43143C24 6.05115 23.6988 5.73924 23.3187 5.72597ZM19.5743 3.72738V15.8256C17.5387 16.281 14.959 17.2527 12.7059 19.3129C12.7059 18.6915 12.7059 7.51552 12.7059 7.17943C14.2504 5.25237 17.1753 4.09087 19.5743 3.72738ZM4.42574 3.72738C6.82466 4.09087 9.74965 5.25237 11.2941 7.17943V19.3129C9.04104 17.2527 6.46132 16.281 4.42574 15.8256V3.72738ZM1.41176 18.6223V7.15839C1.91722 7.17336 2.45784 7.19025 3.01398 7.21148V16.401C3.01398 16.7406 3.25586 17.0321 3.58965 17.0947C5.20146 17.3973 7.29746 18.0539 9.25097 19.4679C6.46391 18.8428 3.54664 18.7423 1.41176 18.6223ZM22.5882 18.6223C20.4568 18.7421 17.5372 18.8425 14.749 19.4679C16.7025 18.0539 18.7985 17.3973 20.4103 17.0947C20.7441 17.0321 20.986 16.7406 20.986 16.401V7.13543C21.6357 7.12089 22.189 7.1207 22.5882 7.12432L22.5882 18.6223Z"/>
</mask>
<path d="M23.3187 5.72597C23.2736 5.72442 22.3467 5.69312 20.986 5.72319V2.93345C20.986 2.52221 20.6349 2.19604 20.2214 2.23002C17.5084 2.45651 14.0567 3.65534 12 5.84192C9.94334 3.65534 6.49162 2.45651 3.77859 2.23002C3.36588 2.19642 3.01398 2.52112 3.01398 2.93345V5.79863C2.24089 5.76945 1.50965 5.74889 0.726824 5.72588C0.332 5.71341 0 6.03143 0 6.43143V19.2865C0 19.658 0.287859 19.9659 0.658494 19.9908C3.4664 20.1798 8.16988 20.201 11.7231 21.7165C12.0398 21.8518 12.324 21.6964 12.277 21.7165C15.8301 20.2011 20.5328 20.1799 23.3416 19.9908C23.7122 19.9659 24.0001 19.658 24.0001 19.2865V6.43143C24 6.05115 23.6988 5.73924 23.3187 5.72597ZM19.5743 3.72738V15.8256C17.5387 16.281 14.959 17.2527 12.7059 19.3129C12.7059 18.6915 12.7059 7.51552 12.7059 7.17943C14.2504 5.25237 17.1753 4.09087 19.5743 3.72738ZM4.42574 3.72738C6.82466 4.09087 9.74965 5.25237 11.2941 7.17943V19.3129C9.04104 17.2527 6.46132 16.281 4.42574 15.8256V3.72738ZM1.41176 18.6223V7.15839C1.91722 7.17336 2.45784 7.19025 3.01398 7.21148V16.401C3.01398 16.7406 3.25586 17.0321 3.58965 17.0947C5.20146 17.3973 7.29746 18.0539 9.25097 19.4679C6.46391 18.8428 3.54664 18.7423 1.41176 18.6223ZM22.5882 18.6223C20.4568 18.7421 17.5372 18.8425 14.749 19.4679C16.7025 18.0539 18.7985 17.3973 20.4103 17.0947C20.7441 17.0321 20.986 16.7406 20.986 16.401V7.13543C21.6357 7.12089 22.189 7.1207 22.5882 7.12432L22.5882 18.6223Z" fill="#10142D" stroke="currentColor" stroke-width="5" mask="url(#path-1-inside-1_1200_1266)"/>
<mask id="path-2-inside-2_1200_1266" fill="white">
<path d="M9.46379 8.80549C8.91706 8.42459 7.97452 7.95706 6.96864 7.78708C6.58441 7.72186 6.21998 7.98111 6.15499 8.36549C6.09005 8.74986 6.34902 9.11414 6.73344 9.17909C7.51005 9.31033 8.2549 9.68384 8.65678 9.96384C8.97654 10.1866 9.41654 10.1081 9.63946 9.78817C9.86228 9.46831 9.78365 9.02831 9.46379 8.80549V8.80549Z"/>
</mask>
<path d="M9.46379 8.80549C8.91706 8.42459 7.97452 7.95706 6.96864 7.78708C6.58441 7.72186 6.21998 7.98111 6.15499 8.36549C6.09005 8.74986 6.34902 9.11414 6.73344 9.17909C7.51005 9.31033 8.2549 9.68384 8.65678 9.96384C8.97654 10.1866 9.41654 10.1081 9.63946 9.78817C9.86228 9.46831 9.78365 9.02831 9.46379 8.80549V8.80549Z" fill="#10142D" stroke="currentColor" stroke-width="2.00784" mask="url(#path-2-inside-2_1200_1266)"/>
<mask id="path-3-inside-3_1200_1266" fill="white">
<path d="M9.39311 12.7805C8.8901 12.4734 7.90624 11.9344 6.96864 11.7759C6.58441 11.7108 6.21998 11.9699 6.15499 12.3543C6.09005 12.7387 6.34902 13.103 6.73344 13.1679C7.46384 13.2913 8.32215 13.7807 8.65725 13.9854C8.99038 14.1887 9.42464 14.0832 9.62761 13.7509C9.83081 13.4182 9.72582 12.9838 9.39311 12.7805V12.7805Z"/>
</mask>
<path d="M9.39311 12.7805C8.8901 12.4734 7.90624 11.9344 6.96864 11.7759C6.58441 11.7108 6.21998 11.9699 6.15499 12.3543C6.09005 12.7387 6.34902 13.103 6.73344 13.1679C7.46384 13.2913 8.32215 13.7807 8.65725 13.9854C8.99038 14.1887 9.42464 14.0832 9.62761 13.7509C9.83081 13.4182 9.72582 12.9838 9.39311 12.7805V12.7805Z" fill="#10142D" stroke="currentColor" stroke-width="2.00784" mask="url(#path-3-inside-3_1200_1266)"/>
<mask id="path-4-inside-4_1200_1266" fill="white">
<path d="M15.3431 9.96383C15.745 9.68383 16.4898 9.31032 17.2664 9.17907C17.6508 9.11413 17.9098 8.74985 17.8449 8.36548C17.7799 7.98105 17.4155 7.72171 17.0312 7.78708C16.0253 7.957 15.0828 8.42458 14.5361 8.80547C14.2162 9.0283 14.1376 9.4683 14.3604 9.78816C14.5834 10.1082 15.0235 10.1865 15.3431 9.96383V9.96383Z"/>
</mask>
<path d="M15.3431 9.96383C15.745 9.68383 16.4898 9.31032 17.2664 9.17907C17.6508 9.11413 17.9098 8.74985 17.8449 8.36548C17.7799 7.98105 17.4155 7.72171 17.0312 7.78708C16.0253 7.957 15.0828 8.42458 14.5361 8.80547C14.2162 9.0283 14.1376 9.4683 14.3604 9.78816C14.5834 10.1082 15.0235 10.1865 15.3431 9.96383V9.96383Z" fill="#10142D" stroke="currentColor" stroke-width="2.00784" mask="url(#path-4-inside-4_1200_1266)"/>
<mask id="path-5-inside-5_1200_1266" fill="white">
<path d="M17.0313 11.7759C16.0937 11.9343 15.1099 12.4734 14.6069 12.7806C14.2742 12.9838 14.1692 13.4182 14.3724 13.7509C14.5756 14.0836 15.01 14.1886 15.3427 13.9854C15.6778 13.7807 16.5361 13.2914 17.2665 13.1679C17.6509 13.103 17.9099 12.7388 17.845 12.3543C17.78 11.9699 17.4156 11.7106 17.0313 11.7759V11.7759Z"/>
</mask>
<path d="M17.0313 11.7759C16.0937 11.9343 15.1099 12.4734 14.6069 12.7806C14.2742 12.9838 14.1692 13.4182 14.3724 13.7509C14.5756 14.0836 15.01 14.1886 15.3427 13.9854C15.6778 13.7807 16.5361 13.2914 17.2665 13.1679C17.6509 13.103 17.9099 12.7388 17.845 12.3543C17.78 11.9699 17.4156 11.7106 17.0313 11.7759V11.7759Z" fill="#10142D" stroke="currentColor" stroke-width="2.00784" mask="url(#path-5-inside-5_1200_1266)"/>
</g>
<defs>
<clipPath id="clip0_1200_1266">
<rect width="24" height="24" fill="white"/>
</clipPath>
</defs>
</svg>
