<svg width="24" height="24" viewBox="0 0 24 24" fill="none" xmlns="http://www.w3.org/2000/svg">
<path d="M19 11V18.6471C19 18.6471 16.3017 21 12 21C7.6983 21 5 18.6471 5 18.6471V11" stroke="currentColor" stroke-width="1.5" stroke-linecap="round" stroke-linejoin="round"/>
<path fill-rule="evenodd" clip-rule="evenodd" d="M1.32796 8.89625C0.890254 8.67739 0.891109 8.32214 1.32796 8.10372L11.2075 3.16398C11.6452 2.94513 12.3557 2.94556 12.7925 3.16398L22.672 8.10375C23.1097 8.32261 23.1089 8.67786 22.672 8.89628L12.7925 13.836C12.3548 14.0549 11.6443 14.0544 11.2075 13.836L1.32796 8.89625Z" stroke="currentColor" stroke-width="1.5" stroke-linecap="round" stroke-linejoin="round"/>
<line x1="21.75" y1="9.75" x2="21.75" y2="14.25" stroke="currentColor" stroke-width="1.5" stroke-linecap="round"/>
<rect x="7" y="16" width="17" height="6" rx="2" fill="#5EC96C"/>
<path d="M9.192 17.992C8.62 17.992 8.18 18.44 8.18 19.02C8.18 19.608 8.628 20.044 9.236 20.044C9.48 20.044 9.7 19.972 9.888 19.832C9.964 19.776 9.992 19.728 9.992 19.656C9.992 19.556 9.916 19.48 9.816 19.48C9.78 19.48 9.744 19.496 9.708 19.52C9.576 19.62 9.416 19.672 9.248 19.672C8.9 19.672 8.664 19.472 8.608 19.156H9.864C10.012 19.156 10.104 19.068 10.104 18.924V18.904C10.104 18.376 9.716 17.992 9.192 17.992ZM9.18 18.348C9.476 18.348 9.676 18.544 9.684 18.828H8.616C8.68 18.54 8.896 18.348 9.18 18.348ZM12.2893 16.956C12.1693 16.956 12.0773 17.048 12.0773 17.172V18.276C11.9293 18.1 11.6973 17.992 11.4213 17.992C10.8692 17.992 10.4613 18.428 10.4613 19.02C10.4613 19.612 10.8692 20.044 11.4213 20.044C11.7053 20.044 11.9413 19.936 12.0853 19.752V19.832C12.0853 19.952 12.1733 20.044 12.2933 20.044C12.4093 20.044 12.5013 19.956 12.5013 19.832V17.172C12.5013 17.044 12.4093 16.956 12.2893 16.956ZM11.4933 19.66C11.1413 19.66 10.8893 19.388 10.8893 19.016C10.8893 18.648 11.1453 18.376 11.4933 18.376C11.8453 18.376 12.0853 18.64 12.0853 19.02C12.0853 19.4 11.8453 19.66 11.4933 19.66ZM13.9487 20.044C14.4487 20.044 14.8007 19.688 14.8007 19.176V18.208C14.8007 18.084 14.7127 17.992 14.5927 17.992C14.4687 17.992 14.3807 18.084 14.3807 18.208V19.208C14.3807 19.468 14.2007 19.656 13.9487 19.656C13.6887 19.656 13.5047 19.468 13.5047 19.208V18.208C13.5047 18.084 13.4167 17.992 13.2967 17.992C13.1767 17.992 13.0887 18.084 13.0887 18.208V19.176C13.0887 19.688 13.4407 20.044 13.9487 20.044ZM16.4139 19.66C16.3779 19.66 16.3419 19.664 16.2939 19.664C16.0259 19.664 15.9099 19.564 15.9099 19.324V18.4H16.3299C16.4379 18.4 16.5179 18.324 16.5179 18.22C16.5179 18.116 16.4379 18.036 16.3299 18.036H15.9099V17.692C15.9099 17.568 15.8179 17.476 15.6979 17.476C15.5779 17.476 15.4859 17.572 15.4859 17.692V18.036H15.3299C15.2259 18.036 15.1419 18.116 15.1419 18.22C15.1419 18.324 15.2259 18.4 15.3299 18.4H15.4859V19.36C15.4859 19.804 15.7419 20.044 16.2099 20.044C16.3219 20.044 16.4059 20.032 16.4739 20.004C16.5539 19.976 16.5979 19.916 16.5979 19.828C16.5979 19.728 16.5259 19.66 16.4139 19.66ZM17.8326 17.992C17.2606 17.992 16.8206 18.44 16.8206 19.02C16.8206 19.608 17.2686 20.044 17.8766 20.044C18.1206 20.044 18.3406 19.972 18.5286 19.832C18.6046 19.776 18.6326 19.728 18.6326 19.656C18.6326 19.556 18.5566 19.48 18.4566 19.48C18.4206 19.48 18.3846 19.496 18.3486 19.52C18.2166 19.62 18.0566 19.672 17.8886 19.672C17.5406 19.672 17.3046 19.472 17.2486 19.156H18.5046C18.6526 19.156 18.7446 19.068 18.7446 18.924V18.904C18.7446 18.376 18.3566 17.992 17.8326 17.992ZM17.8206 18.348C18.1166 18.348 18.3166 18.544 18.3246 18.828H17.2566C17.3206 18.54 17.5366 18.348 17.8206 18.348ZM19.8339 20.044C20.2259 20.044 20.5619 19.84 20.5619 19.444C20.5619 19.156 20.3819 19 20.0259 18.852L19.8379 18.776C19.6579 18.704 19.5779 18.652 19.5779 18.544C19.5779 18.416 19.6899 18.356 19.8459 18.356C19.9939 18.356 20.1299 18.412 20.2339 18.492C20.2859 18.532 20.3219 18.552 20.3659 18.552C20.4619 18.552 20.5419 18.472 20.5419 18.372C20.5419 18.32 20.5219 18.272 20.4779 18.232C20.3259 18.084 20.1059 17.992 19.8539 17.992C19.4659 17.992 19.1619 18.196 19.1619 18.56C19.1619 18.856 19.3579 19 19.6739 19.132L19.8739 19.216C20.0339 19.28 20.1499 19.332 20.1499 19.46C20.1499 19.608 20.0059 19.68 19.8339 19.68C19.6459 19.68 19.4979 19.592 19.3739 19.476C19.3299 19.436 19.2859 19.42 19.2419 19.42C19.1379 19.42 19.0539 19.504 19.0539 19.604C19.0539 19.66 19.0739 19.704 19.1139 19.74C19.2819 19.92 19.5299 20.044 19.8339 20.044ZM22.0702 19.66C22.0342 19.66 21.9982 19.664 21.9502 19.664C21.6822 19.664 21.5662 19.564 21.5662 19.324V18.4H21.9862C22.0942 18.4 22.1742 18.324 22.1742 18.22C22.1742 18.116 22.0942 18.036 21.9862 18.036H21.5662V17.692C21.5662 17.568 21.4742 17.476 21.3542 17.476C21.2342 17.476 21.1422 17.572 21.1422 17.692V18.036H20.9862C20.8822 18.036 20.7982 18.116 20.7982 18.22C20.7982 18.324 20.8822 18.4 20.9862 18.4H21.1422V19.36C21.1422 19.804 21.3982 20.044 21.8662 20.044C21.9782 20.044 22.0622 20.032 22.1302 20.004C22.2102 19.976 22.2542 19.916 22.2542 19.828C22.2542 19.728 22.1822 19.66 22.0702 19.66Z" fill="currentColor"/>
</svg>
