<svg width="24" height="24" viewBox="0 0 24 24" fill="none" xmlns="http://www.w3.org/2000/svg">
<path d="M19 11V18.6471C19 18.6471 16.3017 21 12 21C7.6983 21 5 18.6471 5 18.6471V11" stroke="currentColor" stroke-width="1.5" stroke-linecap="round" stroke-linejoin="round"/>
<path fill-rule="evenodd" clip-rule="evenodd" d="M1.32796 8.89625C0.890254 8.67739 0.891109 8.32214 1.32796 8.10372L11.2075 3.16398C11.6452 2.94513 12.3557 2.94556 12.7925 3.16398L22.672 8.10375C23.1097 8.32261 23.1089 8.67786 22.672 8.89628L12.7925 13.836C12.3548 14.0549 11.6443 14.0544 11.2075 13.836L1.32796 8.89625Z" stroke="currentColor" stroke-width="1.5" stroke-linecap="round" stroke-linejoin="round"/>
<line x1="21.75" y1="9.75" x2="21.75" y2="14.25" stroke="currentColor" stroke-width="1.5" stroke-linecap="round"/>
<rect x="7" y="16" width="17" height="6" rx="2" fill="#FFA31A"/>
<path d="M9.192 17.992C8.62 17.992 8.18 18.44 8.18 19.02C8.18 19.608 8.628 20.044 9.236 20.044C9.48 20.044 9.7 19.972 9.888 19.832C9.964 19.776 9.992 19.728 9.992 19.656C9.992 19.556 9.916 19.48 9.816 19.48C9.78 19.48 9.744 19.496 9.708 19.52C9.576 19.62 9.416 19.672 9.248 19.672C8.9 19.672 8.664 19.472 8.608 19.156H9.864C10.012 19.156 10.104 19.068 10.104 18.924V18.904C10.104 18.376 9.716 17.992 9.192 17.992ZM9.18 18.348C9.476 18.348 9.676 18.544 9.684 18.828H8.616C8.68 18.54 8.896 18.348 9.18 18.348ZM12.2893 16.956C12.1693 16.956 12.0773 17.048 12.0773 17.172V18.276C11.9293 18.1 11.6973 17.992 11.4213 17.992C10.8692 17.992 10.4613 18.428 10.4613 19.02C10.4613 19.612 10.8692 20.044 11.4213 20.044C11.7053 20.044 11.9413 19.936 12.0853 19.752V19.832C12.0853 19.952 12.1733 20.044 12.2933 20.044C12.4093 20.044 12.5013 19.956 12.5013 19.832V17.172C12.5013 17.044 12.4093 16.956 12.2893 16.956ZM11.4933 19.66C11.1413 19.66 10.8893 19.388 10.8893 19.016C10.8893 18.648 11.1453 18.376 11.4933 18.376C11.8453 18.376 12.0853 18.64 12.0853 19.02C12.0853 19.4 11.8453 19.66 11.4933 19.66ZM13.9487 20.044C14.4487 20.044 14.8007 19.688 14.8007 19.176V18.208C14.8007 18.084 14.7127 17.992 14.5927 17.992C14.4687 17.992 14.3807 18.084 14.3807 18.208V19.208C14.3807 19.468 14.2007 19.656 13.9487 19.656C13.6887 19.656 13.5047 19.468 13.5047 19.208V18.208C13.5047 18.084 13.4167 17.992 13.2967 17.992C13.1767 17.992 13.0887 18.084 13.0887 18.208V19.176C13.0887 19.688 13.4407 20.044 13.9487 20.044ZM18.2019 17.992C18.1219 17.992 18.0499 18.04 18.0179 18.116L17.4739 19.356L16.9899 18.144C16.9539 18.048 16.8819 17.992 16.7899 17.992C16.7019 17.992 16.6299 18.048 16.5899 18.144L16.1099 19.356L15.5659 18.116C15.5339 18.04 15.4619 17.992 15.3779 17.992C15.2659 17.992 15.1739 18.084 15.1739 18.196C15.1739 18.228 15.1819 18.26 15.1939 18.292L15.9059 19.916C15.9419 19.996 16.0099 20.044 16.0939 20.044C16.1779 20.044 16.2459 19.996 16.2859 19.92L16.7939 18.696L17.2979 19.92C17.3339 19.996 17.4059 20.044 17.4859 20.044C17.5739 20.044 17.6419 19.996 17.6779 19.916L18.3899 18.292C18.4019 18.26 18.4099 18.228 18.4099 18.196C18.4099 18.084 18.3139 17.992 18.2019 17.992ZM19.474 17.992C19.186 17.992 18.926 18.092 18.758 18.268C18.702 18.324 18.674 18.38 18.674 18.44C18.674 18.532 18.758 18.616 18.858 18.616C18.906 18.616 18.95 18.596 19.002 18.552C19.126 18.428 19.274 18.368 19.438 18.368C19.706 18.368 19.858 18.52 19.858 18.788V18.916H19.302C18.858 18.916 18.578 19.132 18.578 19.476C18.578 19.816 18.854 20.044 19.262 20.044C19.514 20.044 19.722 19.96 19.866 19.808V19.832C19.866 19.952 19.954 20.044 20.074 20.044C20.194 20.044 20.282 19.956 20.282 19.832V18.812C20.282 18.296 19.982 17.992 19.474 17.992ZM19.35 19.72C19.142 19.72 19.006 19.62 19.006 19.46C19.006 19.304 19.126 19.22 19.354 19.22H19.858V19.256C19.858 19.516 19.634 19.72 19.35 19.72ZM22.4585 17.992C22.3745 17.992 22.2985 18.044 22.2665 18.116L21.6625 19.436L21.0745 18.116C21.0425 18.04 20.9665 17.992 20.8825 17.992C20.7705 17.992 20.6745 18.088 20.6745 18.196C20.6745 18.236 20.6865 18.264 20.6985 18.296L21.4265 19.908L21.3385 20.096C21.2425 20.3 21.1145 20.384 20.9305 20.384C20.9065 20.384 20.8825 20.38 20.8505 20.38C20.7465 20.38 20.6585 20.464 20.6585 20.564C20.6585 20.644 20.7065 20.716 20.7865 20.74C20.8385 20.756 20.9065 20.764 20.9745 20.764C21.3185 20.764 21.5425 20.592 21.7385 20.184L22.6425 18.292C22.6585 18.26 22.6625 18.228 22.6625 18.196C22.6625 18.088 22.5705 17.992 22.4585 17.992Z" fill="currentColor"/>
</svg>
