<svg width="24" height="24" viewBox="0 0 24 24" fill="none" xmlns="http://www.w3.org/2000/svg">
<mask id="path-1-inside-1_1156_567" fill="currentColor">
<path d="M19.6637 16.9219C19.3371 15.3191 17.9166 14.1094 16.2188 14.1094H14.1094V13.5548C15.5008 12.7892 16.4326 11.3371 16.7645 9.77217C17.664 9.53114 18.3282 8.70886 18.3282 7.73438C18.3282 6.81773 17.7403 6.03619 16.9219 5.74594V4.92188C16.9219 2.20795 14.714 0 12.0001 0C9.28613 0 7.07818 2.20795 7.07818 4.92188V5.74594C6.25979 6.03619 5.67193 6.81773 5.67193 7.73438C5.67193 8.70886 6.3361 9.53114 7.23554 9.77217C7.56774 11.3385 8.50041 12.7898 9.89068 13.5548V14.1094H7.7813C6.08349 14.1094 4.66308 15.3191 4.33641 16.9219H2.66382L4.41863 24H19.5816L21.3363 16.9219H19.6637ZM12.0001 1.40625C13.9386 1.40625 15.5157 2.98336 15.5157 4.92188V5.625C14.6385 5.625 13.8437 5.07295 13.5379 4.25128L12.879 2.48058L12.22 4.25123C11.9142 5.07295 11.1194 5.625 10.2422 5.625H8.48443V4.92188C8.48443 2.98336 10.0615 1.40625 12.0001 1.40625ZM8.53988 9.05433L8.46357 8.4375H7.7813C7.3936 8.4375 7.07818 8.12208 7.07818 7.73438C7.07818 7.34667 7.3936 7.03125 7.7813 7.03125H10.2422C11.2661 7.03125 12.2227 6.5798 12.879 5.83861C13.5353 6.5798 14.4918 7.03125 15.5157 7.03125H16.2188C16.6065 7.03125 16.9219 7.34667 16.9219 7.73438C16.9219 8.12208 16.6065 8.4375 16.2188 8.4375H15.5364L15.4602 9.05433C15.0907 12.0425 12.8062 12.5642 12.7032 12.6457V14.1094H11.2969V12.6457C11.2493 12.608 8.90077 11.9729 8.53988 9.05433ZM7.7813 15.5156H16.2188C17.1354 15.5156 17.917 16.1035 18.2072 16.9219H5.79287C6.08312 16.1035 6.86466 15.5156 7.7813 15.5156ZM18.4814 22.5938H5.51879L4.46124 18.3281H19.5388L18.4814 22.5938Z"/>
</mask>
<path d="M19.6637 16.9219C19.3371 15.3191 17.9166 14.1094 16.2188 14.1094H14.1094V13.5548C15.5008 12.7892 16.4326 11.3371 16.7645 9.77217C17.664 9.53114 18.3282 8.70886 18.3282 7.73438C18.3282 6.81773 17.7403 6.03619 16.9219 5.74594V4.92188C16.9219 2.20795 14.714 0 12.0001 0C9.28613 0 7.07818 2.20795 7.07818 4.92188V5.74594C6.25979 6.03619 5.67193 6.81773 5.67193 7.73438C5.67193 8.70886 6.3361 9.53114 7.23554 9.77217C7.56774 11.3385 8.50041 12.7898 9.89068 13.5548V14.1094H7.7813C6.08349 14.1094 4.66308 15.3191 4.33641 16.9219H2.66382L4.41863 24H19.5816L21.3363 16.9219H19.6637ZM12.0001 1.40625C13.9386 1.40625 15.5157 2.98336 15.5157 4.92188V5.625C14.6385 5.625 13.8437 5.07295 13.5379 4.25128L12.879 2.48058L12.22 4.25123C11.9142 5.07295 11.1194 5.625 10.2422 5.625H8.48443V4.92188C8.48443 2.98336 10.0615 1.40625 12.0001 1.40625ZM8.53988 9.05433L8.46357 8.4375H7.7813C7.3936 8.4375 7.07818 8.12208 7.07818 7.73438C7.07818 7.34667 7.3936 7.03125 7.7813 7.03125H10.2422C11.2661 7.03125 12.2227 6.5798 12.879 5.83861C13.5353 6.5798 14.4918 7.03125 15.5157 7.03125H16.2188C16.6065 7.03125 16.9219 7.34667 16.9219 7.73438C16.9219 8.12208 16.6065 8.4375 16.2188 8.4375H15.5364L15.4602 9.05433C15.0907 12.0425 12.8062 12.5642 12.7032 12.6457V14.1094H11.2969V12.6457C11.2493 12.608 8.90077 11.9729 8.53988 9.05433ZM7.7813 15.5156H16.2188C17.1354 15.5156 17.917 16.1035 18.2072 16.9219H5.79287C6.08312 16.1035 6.86466 15.5156 7.7813 15.5156ZM18.4814 22.5938H5.51879L4.46124 18.3281H19.5388L18.4814 22.5938Z" fill="currentColor"/>
<path d="M19.6637 16.9219L17.214 17.4211L17.6218 19.4219H19.6637V16.9219ZM14.1094 14.1094H11.6094V16.6094H14.1094V14.1094ZM14.1094 13.5548L12.9043 11.3645L11.6094 12.0769V13.5548H14.1094ZM16.7645 9.77217L16.1174 7.35738L14.6369 7.75411L14.3189 9.25346L16.7645 9.77217ZM16.9219 5.74594H14.4219V7.51186L16.0863 8.10214L16.9219 5.74594ZM7.07818 5.74594L7.91383 8.10214L9.57818 7.51186V5.74594H7.07818ZM7.23554 9.77217L9.68113 9.25347L9.36313 7.75411L7.88265 7.35738L7.23554 9.77217ZM9.89068 13.5548H12.3907V12.0769L11.0958 11.3645L9.89068 13.5548ZM9.89068 14.1094V16.6094H12.3907V14.1094H9.89068ZM4.33641 16.9219V19.4219H6.37826L6.78605 17.4212L4.33641 16.9219ZM2.66382 16.9219V14.4219H-0.531668L0.237279 17.5235L2.66382 16.9219ZM4.41863 24L1.99209 24.6016L2.46275 26.5H4.41863V24ZM19.5816 24V26.5H21.5375L22.0081 24.6016L19.5816 24ZM21.3363 16.9219L23.7629 17.5234L24.5318 14.4219H21.3363V16.9219ZM15.5157 5.625V8.125H18.0157V5.625H15.5157ZM13.5379 4.25128L15.881 3.37938L15.8809 3.37933L13.5379 4.25128ZM12.879 2.48058L15.222 1.60862L12.879 -4.68715L10.536 1.6086L12.879 2.48058ZM12.22 4.25123L9.87699 3.37926L9.87694 3.37938L12.22 4.25123ZM8.48443 5.625H5.98443V8.125H8.48443V5.625ZM8.53988 9.05433L11.021 8.74753L11.021 8.74737L8.53988 9.05433ZM8.46357 8.4375L10.9447 8.13055L10.6733 5.9375H8.46357V8.4375ZM12.879 5.83861L14.7507 4.18128L12.879 2.06748L11.0073 4.18128L12.879 5.83861ZM15.5364 8.4375V5.9375H13.3265L13.0553 8.13073L15.5364 8.4375ZM15.4602 9.05433L17.9413 9.36114L17.9413 9.3611L15.4602 9.05433ZM12.7032 12.6457L11.1521 10.685L10.2032 11.4357V12.6457H12.7032ZM12.7032 14.1094V16.6094H15.2032V14.1094H12.7032ZM11.2969 14.1094H8.79693V16.6094H11.2969V14.1094ZM11.2969 12.6457H13.7969V11.436L12.8483 10.6853L11.2969 12.6457ZM18.2072 16.9219V19.4219H21.7465L20.5634 16.0862L18.2072 16.9219ZM5.79287 16.9219L3.43668 16.0862L2.25358 19.4219H5.79287V16.9219ZM18.4814 22.5938V25.0938H20.4373L20.9079 23.1953L18.4814 22.5938ZM5.51879 22.5938L3.09225 23.1953L3.56291 25.0938H5.51879V22.5938ZM4.46124 18.3281V15.8281H1.26575L2.0347 18.9297L4.46124 18.3281ZM19.5388 18.3281L21.9653 18.9296L22.7342 15.8281H19.5388V18.3281ZM22.1133 16.4227C21.5546 13.6807 19.1304 11.6094 16.2188 11.6094V16.6094C16.7029 16.6094 17.1196 16.9575 17.214 17.4211L22.1133 16.4227ZM16.2188 11.6094H14.1094V16.6094H16.2188V11.6094ZM16.6094 14.1094V13.5548H11.6094V14.1094H16.6094ZM15.3146 15.7451C17.4588 14.5654 18.7572 12.4262 19.2101 10.2909L14.3189 9.25346C14.108 10.248 13.5428 11.0131 12.9043 11.3645L15.3146 15.7451ZM17.4116 12.187C19.3743 11.661 20.8282 9.87084 20.8282 7.73438H15.8282C15.8282 7.54688 15.9537 7.40126 16.1174 7.35738L17.4116 12.187ZM20.8282 7.73438C20.8282 5.72281 19.5389 4.02151 17.7576 3.38973L16.0863 8.10214C15.9417 8.05087 15.8282 7.91266 15.8282 7.73438H20.8282ZM19.4219 5.74594V4.92188H14.4219V5.74594H19.4219ZM19.4219 4.92188C19.4219 0.827241 16.0947 -2.5 12.0001 -2.5V2.5C13.3333 2.5 14.4219 3.58867 14.4219 4.92188H19.4219ZM12.0001 -2.5C7.90542 -2.5 4.57818 0.827241 4.57818 4.92188H9.57818C9.57818 3.58867 10.6668 2.5 12.0001 2.5V-2.5ZM4.57818 4.92188V5.74594H9.57818V4.92188H4.57818ZM6.24253 3.38973C4.46118 4.02151 3.17193 5.72281 3.17193 7.73438H8.17193C8.17193 7.91266 8.05839 8.05087 7.91383 8.10214L6.24253 3.38973ZM3.17193 7.73438C3.17193 9.87076 4.62571 11.661 6.58842 12.187L7.88265 7.35738C8.04649 7.40128 8.17193 7.54696 8.17193 7.73438H3.17193ZM4.78994 10.2909C5.24328 12.4283 6.543 14.5663 8.68551 15.7451L11.0958 11.3645C10.4578 11.0134 9.8922 10.2486 9.68113 9.25347L4.78994 10.2909ZM7.39068 13.5548V14.1094H12.3907V13.5548H7.39068ZM9.89068 11.6094H7.7813V16.6094H9.89068V11.6094ZM7.7813 11.6094C4.86968 11.6094 2.44562 13.6807 1.88678 16.4226L6.78605 17.4212C6.88055 16.9575 7.2973 16.6094 7.7813 16.6094V11.6094ZM4.33641 14.4219H2.66382V19.4219H4.33641V14.4219ZM0.237279 17.5235L1.99209 24.6016L6.84517 23.3984L5.09036 16.3203L0.237279 17.5235ZM4.41863 26.5H19.5816V21.5H4.41863V26.5ZM22.0081 24.6016L23.7629 17.5234L18.9098 16.3203L17.155 23.3984L22.0081 24.6016ZM21.3363 14.4219H19.6637V19.4219H21.3363V14.4219ZM12.0001 3.90625C12.5579 3.90625 13.0157 4.36407 13.0157 4.92188H18.0157C18.0157 1.60265 15.3193 -1.09375 12.0001 -1.09375V3.90625ZM13.0157 4.92188V5.625H18.0157V4.92188H13.0157ZM15.5157 3.125C15.6821 3.125 15.8222 3.22147 15.881 3.37938L11.1949 5.12318C11.8652 6.92444 13.5949 8.125 15.5157 8.125V3.125ZM15.8809 3.37933L15.222 1.60862L10.5359 3.35253L11.1949 5.12323L15.8809 3.37933ZM10.536 1.6086L9.87699 3.37926L14.563 5.12321L15.222 3.35255L10.536 1.6086ZM9.87694 3.37938C9.93569 3.2215 10.0758 3.125 10.2422 3.125V8.125C12.1631 8.125 13.8928 6.92441 14.563 5.12309L9.87694 3.37938ZM10.2422 3.125H8.48443V8.125H10.2422V3.125ZM10.9844 5.625V4.92188H5.98443V5.625H10.9844ZM10.9844 4.92188C10.9844 4.36407 11.4422 3.90625 12.0001 3.90625V-1.09375C8.68083 -1.09375 5.98443 1.60265 5.98443 4.92188H10.9844ZM11.021 8.74737L10.9447 8.13055L5.98248 8.74445L6.0588 9.36128L11.021 8.74737ZM8.46357 5.9375H7.7813V10.9375H8.46357V5.9375ZM7.7813 5.9375C8.77431 5.9375 9.57818 6.74137 9.57818 7.73438H4.57818C4.57818 9.50279 6.01289 10.9375 7.7813 10.9375V5.9375ZM9.57818 7.73438C9.57818 8.72738 8.77431 9.53125 7.7813 9.53125V4.53125C6.01289 4.53125 4.57818 5.96596 4.57818 7.73438H9.57818ZM7.7813 9.53125H10.2422V4.53125H7.7813V9.53125ZM10.2422 9.53125C12.004 9.53125 13.6347 8.75625 14.7507 7.49594L11.0073 4.18128C10.8106 4.40334 10.5283 4.53125 10.2422 4.53125V9.53125ZM11.0073 7.49594C12.1232 8.75625 13.7539 9.53125 15.5157 9.53125V4.53125C15.2296 4.53125 14.9473 4.40335 14.7507 4.18128L11.0073 7.49594ZM15.5157 9.53125H16.2188V4.53125H15.5157V9.53125ZM16.2188 9.53125C15.2258 9.53125 14.4219 8.72738 14.4219 7.73438H19.4219C19.4219 5.96596 17.9872 4.53125 16.2188 4.53125V9.53125ZM14.4219 7.73438C14.4219 6.74137 15.2258 5.9375 16.2188 5.9375V10.9375C17.9872 10.9375 19.4219 9.50279 19.4219 7.73438H14.4219ZM16.2188 5.9375H15.5364V10.9375H16.2188V5.9375ZM13.0553 8.13073L12.9791 8.74756L17.9413 9.3611L18.0176 8.74427L13.0553 8.13073ZM12.9791 8.74752C12.8789 9.55788 12.5684 9.86662 12.4013 10.0029C12.2925 10.0918 12.1815 10.1531 12.0869 10.1963C12.04 10.2177 11.9972 10.2348 11.944 10.2551C11.9338 10.259 11.8643 10.2852 11.8155 10.3048C11.7885 10.3156 11.7263 10.3409 11.6529 10.3755C11.6258 10.3882 11.3961 10.492 11.1521 10.685L14.2542 14.6064C14.0167 14.7943 13.7976 14.8921 13.7853 14.8979C13.7266 14.9256 13.6831 14.9429 13.6786 14.9447C13.6748 14.9463 13.6653 14.95 13.7281 14.926C13.821 14.8905 13.9765 14.8301 14.164 14.7445C14.5382 14.5736 15.0408 14.3024 15.5621 13.8771C16.6554 12.9852 17.672 11.539 17.9413 9.36114L12.9791 8.74752ZM10.2032 12.6457V14.1094H15.2032V12.6457H10.2032ZM12.7032 11.6094H11.2969V16.6094H12.7032V11.6094ZM13.7969 14.1094V12.6457H8.79693V14.1094H13.7969ZM12.8483 10.6853C12.61 10.4967 12.386 10.395 12.3733 10.3889C12.3084 10.3578 12.2554 10.3359 12.2332 10.3268C12.187 10.3079 12.1454 10.2925 12.1368 10.2893C12.0986 10.275 12.0963 10.2743 12.0756 10.2664C12.0486 10.256 12.0132 10.2416 11.9695 10.2209C11.8786 10.1777 11.7553 10.1082 11.6301 10.0046C11.4195 9.83029 11.1136 9.49622 11.021 8.74753L6.05878 9.36113C6.32709 11.531 7.37582 12.9737 8.44169 13.8561C8.95468 14.2808 9.44997 14.5595 9.82412 14.7372C10.0129 14.8269 10.1716 14.8912 10.2836 14.9342C10.3323 14.9529 10.3857 14.9726 10.3873 14.9732C10.3986 14.9774 10.373 14.9681 10.3385 14.9539C10.3222 14.9472 10.274 14.9274 10.2128 14.898C10.2037 14.8937 9.98234 14.7935 9.74557 14.6061L12.8483 10.6853ZM7.7813 18.0156H16.2188V13.0156H7.7813V18.0156ZM16.2188 18.0156C16.0405 18.0156 15.9023 17.9021 15.8511 17.7576L20.5634 16.0862C19.9317 14.305 18.2304 13.0156 16.2188 13.0156V18.0156ZM18.2072 14.4219H5.79287V19.4219H18.2072V14.4219ZM8.14905 17.7576C8.0978 17.9021 7.95965 18.0156 7.7813 18.0156V13.0156C5.76967 13.0156 4.06843 14.305 3.43668 16.0862L8.14905 17.7576ZM18.4814 20.0938H5.51879V25.0938H18.4814V20.0938ZM7.94532 21.9922L6.88778 17.7265L2.0347 18.9297L3.09225 23.1953L7.94532 21.9922ZM4.46124 20.8281H19.5388V15.8281H4.46124V20.8281ZM17.1122 17.7266L16.0548 21.9922L20.9079 23.1953L21.9653 18.9296L17.1122 17.7266Z" fill="currentColor" mask="url(#path-1-inside-1_1156_567)"/>
<path d="M11.2969 19.7344H12.7031V21.1406H11.2969V19.7344Z" fill="currentColor"/>
</svg>
