<svg width="24" height="24" viewBox="0 0 24 24" fill="none" xmlns="http://www.w3.org/2000/svg">
<rect x="3.75" y="1.75" width="16.5" height="20.5" rx="2.25" stroke="currentColor" stroke-width="1.5"/>
<line x1="8.75" y1="19.25" x2="15.25" y2="19.25" stroke="currentColor" stroke-width="1.5" stroke-linecap="round"/>
<line x1="6.75" y1="16.25" x2="17.25" y2="16.25" stroke="currentColor" stroke-width="1.5" stroke-linecap="round"/>
<path d="M7.50067 9.06118V8.86241C7.77977 8.96624 8.04506 9.08417 8.29584 9.21472C8.04461 9.15863 7.78692 9.11143 7.52105 9.07332C7.51257 9.07211 7.50636 9.06817 7.50273 9.06411C7.50141 9.06263 7.50083 9.06157 7.50065 9.06118C7.5006 9.06108 7.50058 9.06102 7.50057 9.06101C7.50057 9.06101 7.50059 9.06107 7.50062 9.06118C7.50063 9.06123 7.50064 9.06128 7.50066 9.06135C7.50068 9.06145 7.50068 9.06151 7.50068 9.06151C7.50068 9.0615 7.50067 9.0614 7.50067 9.06118ZM9.01493 9.39394C9.01499 9.39409 9.01398 9.39461 9.0117 9.39506C9.01373 9.39402 9.01487 9.39379 9.01493 9.39394Z" fill="currentColor" stroke="currentColor"/>
<path d="M16.5 11.2661H15.8171C16.0304 11.2025 16.2577 11.1409 16.5 11.0823V11.2661Z" fill="currentColor" stroke="currentColor"/>
<path d="M7.5 11.0299C7.82729 11.1039 8.12886 11.1832 8.40654 11.2661L7.5 11.2661V11.0299Z" fill="currentColor" stroke="currentColor"/>
<path d="M11.5063 7.9571L12.493 7.95695C12.6603 6.94006 13.1975 6.36641 13.8482 6.02098C14.524 5.66216 15.336 5.54543 16.0121 5.51224C16.2579 5.50017 16.4994 5.71682 16.4994 6.01446V6.48413C16.4994 6.7016 16.3487 6.91993 16.0967 7.01099C14.259 7.67495 13.1147 8.7567 12.4296 9.68497L12.4296 9.68501C12.3767 9.75665 12.2641 9.81931 12.1103 9.81931C11.9565 9.8193 11.8438 9.75664 11.7909 9.68495C11.0804 8.72161 9.87522 7.59389 7.91519 6.93866C7.65658 6.8522 7.5 6.63065 7.5 6.40891V6.01446C7.5 5.71682 7.7415 5.50017 7.98729 5.51225C8.66324 5.54545 9.47501 5.66218 10.1508 6.02101C10.8014 6.36645 11.3387 6.94015 11.5063 7.9571Z" fill="#10142D" stroke="currentColor"/>
<path d="M15.205 9.39571C15.2051 9.39556 15.2062 9.39578 15.2083 9.39682C15.206 9.39637 15.205 9.39586 15.205 9.39571ZM15.9233 9.21642C16.1076 9.12037 16.2997 9.03114 16.4994 8.94932V9.09601C16.4994 9.09603 16.4994 9.09604 16.4994 9.09606C16.4992 9.09647 16.4986 9.09752 16.4973 9.09899C16.4938 9.10306 16.4875 9.10716 16.479 9.10858C16.2899 9.13983 16.1049 9.1758 15.9233 9.21642Z" fill="currentColor" stroke="currentColor"/>
</svg>
