<svg width="24" height="24" viewBox="0 0 24 24" fill="none" xmlns="http://www.w3.org/2000/svg">
<mask id="path-1-inside-1_504_577" fill="white">
<path d="M1.54961 4H22.4504C22.754 4 23 4.23671 23 4.52876V19.4712C23 19.7633 22.754 20 22.4504 20H1.54961C1.24605 20 1 19.7633 1 19.4712V4.52876C1 4.23671 1.24605 4 1.54961 4ZM5.43872 11.3823C5.43872 12.0781 4.33922 12.0781 4.33922 11.3823C4.33922 10.55 4.74185 9.76713 5.42247 9.2581C5.3796 9.19995 5.33966 9.13975 5.30318 9.07775C5.13142 8.78442 5.0337 8.44678 5.0337 8.08813C5.0337 6.97195 5.97422 6.06712 7.13443 6.06712C8.29437 6.06712 9.23516 6.97195 9.23516 8.08813C9.23516 8.50801 9.09962 8.91661 8.84611 9.2581C9.527 9.76713 9.92963 10.55 9.92963 11.3823C9.92963 12.0781 8.83013 12.0781 8.83013 11.3823C8.83013 10.7819 8.49488 10.2372 7.94766 9.94979C7.69229 10.0538 7.41163 10.1091 7.13443 10.1091C6.85722 10.1091 6.57629 10.0538 6.32092 9.94979C5.77397 10.2372 5.43872 10.7819 5.43872 11.3823ZM3.97042 13.739H10.2982C10.6017 13.739 10.848 13.9759 10.848 14.268V17.4039C10.848 17.6959 10.6017 17.9329 10.2982 17.9329H3.97042C3.66685 17.9329 3.4208 17.6959 3.4208 17.4039V14.268C3.4208 13.9759 3.66685 13.739 3.97042 13.739ZM9.74855 14.7967H4.5203V16.8751H9.74855V14.7967ZM7.13443 7.12489C6.58135 7.12489 6.13319 7.55604 6.13319 8.08813C6.13319 8.62841 6.58321 9.05136 7.13443 9.05136C7.68617 9.05136 8.13566 8.6238 8.13566 8.08813C8.13566 7.55604 7.68724 7.12489 7.13443 7.12489ZM12.024 7.87088C11.301 7.87088 11.301 6.81312 12.024 6.81312H20.0296C20.7525 6.81312 20.7525 7.87088 20.0296 7.87088H12.024ZM13.2705 17.1869C12.5472 17.1869 12.5472 16.1289 13.2705 16.1289H20.0296C20.7525 16.1289 20.7525 17.1869 20.0296 17.1869H13.2705ZM12.024 10.1998C11.301 10.1998 11.301 9.14205 12.024 9.14205H20.0296C20.7525 9.14205 20.7525 10.1998 20.0296 10.1998H12.024ZM13.2705 12.5288C12.5472 12.5288 12.5472 11.471 13.2705 11.471H20.0296C20.7525 11.471 20.7525 12.5288 20.0296 12.5288H13.2705ZM13.2705 14.8579C12.5472 14.8579 12.5472 13.7999 13.2705 13.7999H20.0296C20.7525 13.7999 20.7525 14.8579 20.0296 14.8579H13.2705ZM21.9005 5.05777H2.09949V18.9422H21.9005V5.05777Z"/>
</mask>
<path d="M1.54961 4H22.4504C22.754 4 23 4.23671 23 4.52876V19.4712C23 19.7633 22.754 20 22.4504 20H1.54961C1.24605 20 1 19.7633 1 19.4712V4.52876C1 4.23671 1.24605 4 1.54961 4ZM5.43872 11.3823C5.43872 12.0781 4.33922 12.0781 4.33922 11.3823C4.33922 10.55 4.74185 9.76713 5.42247 9.2581C5.3796 9.19995 5.33966 9.13975 5.30318 9.07775C5.13142 8.78442 5.0337 8.44678 5.0337 8.08813C5.0337 6.97195 5.97422 6.06712 7.13443 6.06712C8.29437 6.06712 9.23516 6.97195 9.23516 8.08813C9.23516 8.50801 9.09962 8.91661 8.84611 9.2581C9.527 9.76713 9.92963 10.55 9.92963 11.3823C9.92963 12.0781 8.83013 12.0781 8.83013 11.3823C8.83013 10.7819 8.49488 10.2372 7.94766 9.94979C7.69229 10.0538 7.41163 10.1091 7.13443 10.1091C6.85722 10.1091 6.57629 10.0538 6.32092 9.94979C5.77397 10.2372 5.43872 10.7819 5.43872 11.3823ZM3.97042 13.739H10.2982C10.6017 13.739 10.848 13.9759 10.848 14.268V17.4039C10.848 17.6959 10.6017 17.9329 10.2982 17.9329H3.97042C3.66685 17.9329 3.4208 17.6959 3.4208 17.4039V14.268C3.4208 13.9759 3.66685 13.739 3.97042 13.739ZM9.74855 14.7967H4.5203V16.8751H9.74855V14.7967ZM7.13443 7.12489C6.58135 7.12489 6.13319 7.55604 6.13319 8.08813C6.13319 8.62841 6.58321 9.05136 7.13443 9.05136C7.68617 9.05136 8.13566 8.6238 8.13566 8.08813C8.13566 7.55604 7.68724 7.12489 7.13443 7.12489ZM12.024 7.87088C11.301 7.87088 11.301 6.81312 12.024 6.81312H20.0296C20.7525 6.81312 20.7525 7.87088 20.0296 7.87088H12.024ZM13.2705 17.1869C12.5472 17.1869 12.5472 16.1289 13.2705 16.1289H20.0296C20.7525 16.1289 20.7525 17.1869 20.0296 17.1869H13.2705ZM12.024 10.1998C11.301 10.1998 11.301 9.14205 12.024 9.14205H20.0296C20.7525 9.14205 20.7525 10.1998 20.0296 10.1998H12.024ZM13.2705 12.5288C12.5472 12.5288 12.5472 11.471 13.2705 11.471H20.0296C20.7525 11.471 20.7525 12.5288 20.0296 12.5288H13.2705ZM13.2705 14.8579C12.5472 14.8579 12.5472 13.7999 13.2705 13.7999H20.0296C20.7525 13.7999 20.7525 14.8579 20.0296 14.8579H13.2705ZM21.9005 5.05777H2.09949V18.9422H21.9005V5.05777Z" fill="#10142D"/>
<path d="M5.42247 9.2581L6.91976 11.2601L8.90809 9.77309L7.43474 7.7746L5.42247 9.2581ZM5.30318 9.07775L3.1458 10.341L3.14854 10.3456L5.30318 9.07775ZM8.84611 9.2581L6.83877 7.76795L5.35363 9.76854L7.3492 11.2604L8.84611 9.2581ZM7.94766 9.94979L9.11021 7.73654L8.08116 7.19601L7.00465 7.63446L7.94766 9.94979ZM6.32092 9.94979L7.26393 7.63446L6.18714 7.1959L5.15793 7.73677L6.32092 9.94979ZM9.74855 14.7967H12.2486V12.2967H9.74855V14.7967ZM4.5203 14.7967V12.2967H2.0203V14.7967H4.5203ZM4.5203 16.8751H2.0203V19.3751H4.5203V16.8751ZM9.74855 16.8751V19.3751H12.2486V16.8751H9.74855ZM2.09949 5.05777V2.55777H-0.400506V5.05777H2.09949ZM2.09949 18.9422H-0.400506V21.4422H2.09949V18.9422ZM21.9005 18.9422V21.4422H24.4005V18.9422H21.9005ZM1.54961 6.5H22.4504V1.5H1.54961V6.5ZM22.4504 6.5C21.4653 6.5 20.5 5.7077 20.5 4.52876H25.5C25.5 2.76573 24.0426 1.5 22.4504 1.5V6.5ZM20.5 4.52876V19.4712H25.5V4.52876H20.5ZM20.5 19.4712C20.5 18.2923 21.4653 17.5 22.4504 17.5V22.5C24.0426 22.5 25.5 21.2343 25.5 19.4712H20.5ZM22.4504 17.5H1.54961V22.5H22.4504V17.5ZM1.54961 17.5C2.53472 17.5 3.5 18.2923 3.5 19.4712H-1.5C-1.5 21.2343 -0.0426235 22.5 1.54961 22.5V17.5ZM3.5 19.4712V4.52876H-1.5V19.4712H3.5ZM3.5 4.52876C3.5 5.7077 2.53472 6.5 1.54961 6.5V1.5C-0.0426211 1.5 -1.5 2.76572 -1.5 4.52876H3.5ZM2.93872 11.3823C2.93872 10.8311 3.18619 10.2583 3.65473 9.86301C4.06797 9.51434 4.52779 9.40419 4.88897 9.40419C5.25015 9.40419 5.70997 9.51434 6.12321 9.86301C6.59175 10.2583 6.83922 10.8311 6.83922 11.3823H1.83922C1.83922 12.2815 2.22413 13.1152 2.89883 13.6844C3.51822 14.2071 4.25292 14.4042 4.88897 14.4042C5.52502 14.4042 6.25972 14.2071 6.87912 13.6844C7.55381 13.1152 7.93872 12.2815 7.93872 11.3823H2.93872ZM6.83922 11.3823C6.83922 11.3683 6.84564 11.3156 6.91976 11.2601L3.92519 7.25607C2.63805 8.2187 1.83922 9.73171 1.83922 11.3823H6.83922ZM7.43474 7.7746C7.44067 7.78264 7.44863 7.79426 7.45781 7.80986L3.14854 10.3456C3.23069 10.4852 3.31853 10.6173 3.41021 10.7416L7.43474 7.7746ZM7.46055 7.81452C7.50426 7.88917 7.5337 7.98546 7.5337 8.08813H2.5337C2.5337 8.9081 2.75859 9.67968 3.14581 10.341L7.46055 7.81452ZM7.5337 8.08813C7.5337 8.44294 7.26289 8.56712 7.13443 8.56712V3.56712C4.68555 3.56712 2.5337 5.50096 2.5337 8.08813H7.5337ZM7.13443 8.56712C7.00591 8.56712 6.73516 8.44314 6.73516 8.08813H11.7352C11.7352 5.50075 9.58283 3.56712 7.13443 3.56712V8.56712ZM6.73516 8.08813C6.73516 7.9659 6.77557 7.85307 6.83877 7.76795L10.8535 10.7483C11.4237 9.98016 11.7352 9.05012 11.7352 8.08813H6.73516ZM7.3492 11.2604C7.4233 11.3158 7.42963 11.3684 7.42963 11.3823H12.4296C12.4296 9.73162 11.6307 8.21845 10.343 7.25579L7.3492 11.2604ZM7.42963 11.3823C7.42963 10.8311 7.6771 10.2583 8.14564 9.86301C8.55888 9.51434 9.0187 9.40419 9.37988 9.40419C9.74106 9.40419 10.2009 9.51434 10.6141 9.86301C11.0827 10.2583 11.3301 10.8311 11.3301 11.3823H6.33013C6.33013 12.2815 6.71504 13.1152 7.38974 13.6844C8.00913 14.2071 8.74383 14.4042 9.37988 14.4042C10.0159 14.4042 10.7506 14.2071 11.37 13.6844C12.0447 13.1152 12.4296 12.2815 12.4296 11.3823H7.42963ZM11.3301 11.3823C11.3301 9.82026 10.4505 8.44054 9.11021 7.73654L6.78512 12.163C6.53927 12.0339 6.33013 11.7435 6.33013 11.3823H11.3301ZM7.00465 7.63446C7.02889 7.62459 7.04966 7.61882 7.06779 7.61526C7.08593 7.6117 7.10768 7.60913 7.13443 7.60913V12.6091C7.73631 12.6091 8.33713 12.4906 8.89067 12.2651L7.00465 7.63446ZM7.13443 7.60913C7.16114 7.60913 7.18273 7.61169 7.2007 7.61522C7.21866 7.61874 7.23945 7.62449 7.26393 7.63446L5.37791 12.2651C5.93175 12.4907 6.53286 12.6091 7.13443 12.6091V7.60913ZM5.15793 7.73677C3.81817 8.44084 2.93872 9.82043 2.93872 11.3823H7.93872C7.93872 11.7433 7.72977 12.0336 7.48391 12.1628L5.15793 7.73677ZM3.97042 16.239H10.2982V11.239H3.97042V16.239ZM10.2982 16.239C9.31306 16.239 8.34805 15.4469 8.34805 14.268H13.348C13.348 12.5049 11.8904 11.239 10.2982 11.239V16.239ZM8.34805 14.268V17.4039H13.348V14.268H8.34805ZM8.34805 17.4039C8.34805 16.2249 9.31307 15.4329 10.2982 15.4329V20.4329C11.8904 20.4329 13.348 19.1669 13.348 17.4039H8.34805ZM10.2982 15.4329H3.97042V20.4329H10.2982V15.4329ZM3.97042 15.4329C4.95712 15.4329 5.9208 16.2265 5.9208 17.4039H0.920804C0.920804 19.1654 2.37658 20.4329 3.97042 20.4329V15.4329ZM5.9208 17.4039V14.268H0.920804V17.4039H5.9208ZM5.9208 14.268C5.9208 15.4454 4.95713 16.239 3.97042 16.239V11.239C2.37657 11.239 0.920804 12.5065 0.920804 14.268H5.9208ZM9.74855 12.2967H4.5203V17.2967H9.74855V12.2967ZM2.0203 14.7967V16.8751H7.0203V14.7967H2.0203ZM4.5203 19.3751H9.74855V14.3751H4.5203V19.3751ZM12.2486 16.8751V14.7967H7.24855V16.8751H12.2486ZM7.13443 4.62489C5.29268 4.62489 3.63319 6.08505 3.63319 8.08813H8.63319C8.63319 9.02703 7.87002 9.62489 7.13443 9.62489V4.62489ZM3.63319 8.08813C3.63319 10.116 5.31181 11.5514 7.13443 11.5514V6.55136C7.85462 6.55136 8.63319 7.14087 8.63319 8.08813H3.63319ZM7.13443 11.5514C8.96645 11.5514 10.6357 10.1029 10.6357 8.08813H5.63566C5.63566 7.14475 6.40589 6.55136 7.13443 6.55136V11.5514ZM10.6357 8.08813C10.6357 6.08462 8.97546 4.62489 7.13443 4.62489V9.62489C6.39901 9.62489 5.63566 9.02746 5.63566 8.08813H10.6357ZM12.024 5.37088C12.5002 5.37088 13.0514 5.56772 13.4651 6.02168C13.8412 6.43434 13.9817 6.92444 13.9817 7.342C13.9817 7.75956 13.8412 8.24967 13.4651 8.66232C13.0514 9.11629 12.5002 9.31312 12.024 9.31312V4.31312C11.1863 4.31312 10.3639 4.64217 9.76949 5.29447C9.21269 5.90545 8.98174 6.66 8.98174 7.342C8.98174 8.024 9.21269 8.77855 9.76949 9.38953C10.3639 10.0418 11.1863 10.3709 12.024 10.3709V5.37088ZM12.024 9.31312H20.0296V4.31312H12.024V9.31312ZM20.0296 9.31312C19.5534 9.31312 19.0021 9.11629 18.5884 8.66232C18.2124 8.24967 18.0718 7.75956 18.0718 7.342C18.0718 6.92444 18.2124 6.43434 18.5884 6.02168C19.0021 5.56772 19.5534 5.37088 20.0296 5.37088V10.3709C20.8673 10.3709 21.6896 10.0418 22.2841 9.38953C22.8409 8.77855 23.0718 8.024 23.0718 7.342C23.0718 6.66 22.8409 5.90545 22.2841 5.29447C21.6896 4.64217 20.8673 4.31312 20.0296 4.31312V9.31312ZM20.0296 5.37088H12.024V10.3709H20.0296V5.37088ZM13.2705 14.6869C13.7465 14.6869 14.2976 14.8836 14.7113 15.3375C15.0874 15.7501 15.228 16.2403 15.228 16.6579C15.228 17.0755 15.0874 17.5656 14.7113 17.9782C14.2976 18.4321 13.7465 18.6289 13.2705 18.6289V13.6289C12.4328 13.6289 11.6104 13.9578 11.0159 14.6101C10.4591 15.2211 10.228 15.9757 10.228 16.6579C10.228 17.34 10.4591 18.0946 11.0159 18.7056C11.6104 19.3579 12.4328 19.6869 13.2705 19.6869V14.6869ZM13.2705 18.6289H20.0296V13.6289H13.2705V18.6289ZM20.0296 18.6289C19.5532 18.6289 19.0019 18.4319 18.5882 17.9779C18.2123 17.5652 18.0718 17.0752 18.0718 16.6579C18.0718 16.2405 18.2123 15.7505 18.5882 15.3379C19.0019 14.8839 19.5532 14.6869 20.0296 14.6869V19.6869C20.8675 19.6869 21.6899 19.3577 22.2843 18.7053C22.841 18.0942 23.0718 17.3397 23.0718 16.6579C23.0718 15.976 22.841 15.2215 22.2843 14.6105C21.6899 13.9581 20.8675 13.6289 20.0296 13.6289V18.6289ZM20.0296 14.6869H13.2705V19.6869H20.0296V14.6869ZM12.024 7.69982C12.5002 7.69982 13.0514 7.89665 13.4651 8.35062C13.8412 8.76327 13.9817 9.25338 13.9817 9.67094C13.9817 10.0885 13.8412 10.5786 13.4651 10.9913C13.0514 11.4452 12.5002 11.6421 12.024 11.6421V6.64205C11.1863 6.64205 10.3639 6.9711 9.76949 7.6234C9.21269 8.23439 8.98174 8.98894 8.98174 9.67094C8.98174 10.3529 9.21269 11.1075 9.76949 11.7185C10.3639 12.3708 11.1863 12.6998 12.024 12.6998V7.69982ZM12.024 11.6421H20.0296V6.64205H12.024V11.6421ZM20.0296 11.6421C19.5534 11.6421 19.0021 11.4452 18.5884 10.9913C18.2124 10.5786 18.0718 10.0885 18.0718 9.67094C18.0718 9.25338 18.2124 8.76327 18.5884 8.35062C19.0021 7.89665 19.5534 7.69982 20.0296 7.69982V12.6998C20.8673 12.6998 21.6896 12.3708 22.2841 11.7185C22.8409 11.1075 23.0718 10.3529 23.0718 9.67094C23.0718 8.98894 22.8409 8.23439 22.2841 7.6234C21.6896 6.9711 20.8673 6.64205 20.0296 6.64205V11.6421ZM20.0296 7.69982H12.024V12.6998H20.0296V7.69982ZM13.2705 10.0288C13.7463 10.0288 14.2974 10.2254 14.7111 10.6792C15.0873 11.0918 15.228 11.5821 15.228 11.9999C15.228 12.4177 15.0873 12.9079 14.7111 13.3205C14.2974 13.7744 13.7463 13.971 13.2705 13.971V8.97099C12.433 8.97099 11.6107 9.2998 11.0161 9.952C10.4592 10.5629 10.228 11.3176 10.228 11.9999C10.228 12.6821 10.4592 13.4368 11.0161 14.0477C11.6107 14.6999 12.433 15.0288 13.2705 15.0288V10.0288ZM13.2705 13.971H20.0296V8.97099H13.2705V13.971ZM20.0296 13.971C19.5534 13.971 19.0021 13.7742 18.5884 13.3202C18.2124 12.9075 18.0718 12.4174 18.0718 11.9999C18.0718 11.5823 18.2124 11.0922 18.5884 10.6796C19.0021 10.2256 19.5534 10.0288 20.0296 10.0288V15.0288C20.8673 15.0288 21.6896 14.6997 22.2841 14.0474C22.8409 13.4364 23.0718 12.6819 23.0718 11.9999C23.0718 11.3179 22.8409 10.5633 22.2841 9.95234C21.6896 9.30004 20.8673 8.97099 20.0296 8.97099V13.971ZM20.0296 10.0288H13.2705V15.0288H20.0296V10.0288ZM13.2705 12.3579C13.7465 12.3579 14.2976 12.5547 14.7113 13.0086C15.0874 13.4212 15.228 13.9113 15.228 14.3289C15.228 14.7465 15.0874 15.2367 14.7113 15.6493C14.2976 16.1032 13.7465 16.2999 13.2705 16.2999V11.2999C12.4328 11.2999 11.6104 11.6289 11.0159 12.2812C10.4591 12.8922 10.228 13.6468 10.228 14.3289C10.228 15.0111 10.4591 15.7657 11.0159 16.3767C11.6104 17.029 12.4328 17.3579 13.2705 17.3579V12.3579ZM13.2705 16.2999H20.0296V11.2999H13.2705V16.2999ZM20.0296 16.2999C19.5532 16.2999 19.0019 16.103 18.5882 15.6489C18.2123 15.2363 18.0718 14.7463 18.0718 14.3289C18.0718 13.9116 18.2123 13.4216 18.5882 13.0089C19.0019 12.5549 19.5532 12.3579 20.0296 12.3579V17.3579C20.8675 17.3579 21.6899 17.0287 22.2843 16.3763C22.841 15.7653 23.0718 15.0108 23.0718 14.3289C23.0718 13.6471 22.841 12.8926 22.2843 12.2815C21.6899 11.6291 20.8675 11.2999 20.0296 11.2999V16.2999ZM20.0296 12.3579H13.2705V17.3579H20.0296V12.3579ZM21.9005 2.55777H2.09949V7.55777H21.9005V2.55777ZM-0.400506 5.05777V18.9422H4.59949V5.05777H-0.400506ZM2.09949 21.4422H21.9005V16.4422H2.09949V21.4422ZM24.4005 18.9422V5.05777H19.4005V18.9422H24.4005Z" fill="currentColor" mask="url(#path-1-inside-1_504_577)"/>
</svg>
